<svg width="80" height="80" viewBox="0 0 80 80" fill="none" xmlns="http://www.w3.org/2000/svg">
<g filter="url(#filter0_f_474_185)">
<path d="M18 15H62L57.9987 60.1807L39.9535 65.2865L22.0069 60.1778L18 15ZM53.8086 24.2452L26.1942 24.2396L26.6394 29.7315L47.8546 29.7371L47.3221 35.4291H33.4077L33.9121 40.8195H46.8656L46.0991 48.2022L40.0014 49.8872L33.8107 48.1881L33.4134 43.767H27.9468L28.5555 51.8456L40.0014 55.4101L51.2585 52.2063L53.8086 24.2452Z" fill="#D4D4D8" fill-opacity="0.42"/>
</g>
<g filter="url(#filter1_f_474_185)">
<path d="M18 15H62L57.9987 60.1807L39.9535 65.2865L22.0069 60.1778L18 15ZM53.8086 24.2452L26.1942 24.2396L26.6394 29.7315L47.8546 29.7371L47.3221 35.4291H33.4077L33.9121 40.8195H46.8656L46.0991 48.2022L40.0014 49.8872L33.8107 48.1881L33.4134 43.767H27.9468L28.5555 51.8456L40.0014 55.4101L51.2585 52.2063L53.8086 24.2452Z" fill="#A1A1AA" fill-opacity="0.65"/>
</g>
<path d="M18 15H62L57.9987 60.1807L39.9535 65.2865L22.0069 60.1778L18 15ZM53.8086 24.2452L26.1942 24.2396L26.6394 29.7315L47.8546 29.7371L47.3221 35.4291H33.4077L33.9121 40.8195H46.8656L46.0991 48.2022L40.0014 49.8872L33.8107 48.1881L33.4134 43.767H27.9468L28.5555 51.8456L40.0014 55.4101L51.2585 52.2063L53.8086 24.2452Z" fill="#F4F4F5"/>
<defs>
<filter id="filter0_f_474_185" x="10.5" y="7.5" width="59" height="65.2861" filterUnits="userSpaceOnUse" color-interpolation-filters="sRGB">
<feFlood flood-opacity="0" result="BackgroundImageFix"/>
<feBlend mode="normal" in="SourceGraphic" in2="BackgroundImageFix" result="shape"/>
<feGaussianBlur stdDeviation="3.75" result="effect1_foregroundBlur_474_185"/>
</filter>
<filter id="filter1_f_474_185" x="3.8" y="0.8" width="72.4" height="78.6861" filterUnits="userSpaceOnUse" color-interpolation-filters="sRGB">
<feFlood flood-opacity="0" result="BackgroundImageFix"/>
<feBlend mode="normal" in="SourceGraphic" in2="BackgroundImageFix" result="shape"/>
<feGaussianBlur stdDeviation="7.1" result="effect1_foregroundBlur_474_185"/>
</filter>
</defs>
</svg>
