<svg width="80" height="80" viewBox="0 0 80 80" fill="none" xmlns="http://www.w3.org/2000/svg">
<g filter="url(#filter0_f_601_2)">
<path d="M48.0524 31.948C50.1458 31.8851 52.1325 31.0093 53.5911 29.5063C55.0497 28.0033 55.8655 25.9912 55.8655 23.8968C55.8655 21.8024 55.0497 19.7904 53.5911 18.2873C52.1325 16.7843 50.1458 15.9085 48.0524 15.8457H31.9477C29.8542 15.9085 27.8676 16.7843 26.409 18.2873C24.9504 19.7904 24.1346 21.8024 24.1346 23.8968C24.1346 25.9912 24.9504 28.0033 26.409 29.5063C27.8676 31.0093 29.8542 31.8851 31.9477 31.948C29.8359 31.9845 27.823 32.8491 26.3425 34.3555C24.8621 35.8618 24.0325 37.8894 24.0325 40.0015C24.0325 42.1136 24.8621 44.1412 26.3425 45.6475C27.823 47.1539 29.8359 48.0185 31.9477 48.055C29.8463 48.1065 27.8482 48.9775 26.3801 50.482C24.912 51.9865 24.0903 54.0053 24.0903 56.1074C24.0903 58.2095 24.912 60.2283 26.3801 61.7328C27.8482 63.2372 29.8463 64.1082 31.9477 64.1597C34.0833 64.1584 36.1311 63.3093 37.641 61.799C39.1509 60.2886 39.9994 58.2406 40 56.105V31.948H48.0524Z" fill="#D4D4D8" fill-opacity="0.42"/>
</g>
<g filter="url(#filter1_f_601_2)">
<path d="M48.0523 48.0519C52.4995 48.0519 56.1047 44.4468 56.1047 39.9996C56.1047 35.5524 52.4995 31.9473 48.0523 31.9473C43.6052 31.9473 40 35.5524 40 39.9996C40 44.4468 43.6052 48.0519 48.0523 48.0519Z" fill="#D4D4D8" fill-opacity="0.42"/>
</g>
<g filter="url(#filter2_f_601_2)">
<g filter="url(#filter3_f_601_2)">
<path d="M48.0524 31.948C50.1458 31.8851 52.1325 31.0093 53.5911 29.5063C55.0497 28.0033 55.8655 25.9912 55.8655 23.8968C55.8655 21.8024 55.0497 19.7904 53.5911 18.2873C52.1325 16.7843 50.1458 15.9085 48.0524 15.8457H31.9477C29.8542 15.9085 27.8676 16.7843 26.409 18.2873C24.9504 19.7904 24.1346 21.8024 24.1346 23.8968C24.1346 25.9912 24.9504 28.0033 26.409 29.5063C27.8676 31.0093 29.8542 31.8851 31.9477 31.948C29.8359 31.9845 27.823 32.8491 26.3425 34.3555C24.8621 35.8618 24.0325 37.8894 24.0325 40.0015C24.0325 42.1136 24.8621 44.1412 26.3425 45.6475C27.823 47.1539 29.8359 48.0185 31.9477 48.055C29.8463 48.1065 27.8482 48.9775 26.3801 50.482C24.912 51.9865 24.0903 54.0053 24.0903 56.1074C24.0903 58.2095 24.912 60.2283 26.3801 61.7328C27.8482 63.2372 29.8463 64.1082 31.9477 64.1597C34.0833 64.1584 36.1311 63.3093 37.641 61.799C39.1509 60.2886 39.9994 58.2406 40 56.105V31.948H48.0524Z" fill="#A1A1AA" fill-opacity="0.65"/>
</g>
<g filter="url(#filter4_f_601_2)">
<path d="M48.0523 48.0519C52.4995 48.0519 56.1047 44.4468 56.1047 39.9996C56.1047 35.5524 52.4995 31.9473 48.0523 31.9473C43.6052 31.9473 40 35.5524 40 39.9996C40 44.4468 43.6052 48.0519 48.0523 48.0519Z" fill="#A1A1AA" fill-opacity="0.65"/>
</g>
</g>
<path d="M48.0524 31.948C50.1458 31.8851 52.1325 31.0093 53.5911 29.5063C55.0497 28.0033 55.8655 25.9912 55.8655 23.8968C55.8655 21.8024 55.0497 19.7904 53.5911 18.2873C52.1325 16.7843 50.1458 15.9085 48.0524 15.8457H31.9477C29.8542 15.9085 27.8676 16.7843 26.409 18.2873C24.9504 19.7904 24.1346 21.8024 24.1346 23.8968C24.1346 25.9912 24.9504 28.0033 26.409 29.5063C27.8676 31.0093 29.8542 31.8851 31.9477 31.948C29.8359 31.9845 27.823 32.8491 26.3425 34.3555C24.8621 35.8618 24.0325 37.8894 24.0325 40.0015C24.0325 42.1136 24.8621 44.1412 26.3425 45.6475C27.823 47.1539 29.8359 48.0185 31.9477 48.055C29.8463 48.1065 27.8482 48.9775 26.3801 50.482C24.912 51.9865 24.0903 54.0053 24.0903 56.1074C24.0903 58.2095 24.912 60.2283 26.3801 61.7328C27.8482 63.2372 29.8463 64.1082 31.9477 64.1597C34.0833 64.1584 36.1311 63.3093 37.641 61.799C39.1509 60.2886 39.9994 58.2406 40 56.105V31.948H48.0524Z" fill="#F4F4F5"/>
<path d="M48.0523 48.0519C52.4995 48.0519 56.1047 44.4468 56.1047 39.9996C56.1047 35.5524 52.4995 31.9473 48.0523 31.9473C43.6052 31.9473 40 35.5524 40 39.9996C40 44.4468 43.6052 48.0519 48.0523 48.0519Z" fill="#F4F4F5"/>
<defs>
<filter id="filter0_f_601_2" x="16.5325" y="8.3457" width="46.833" height="63.3145" filterUnits="userSpaceOnUse" color-interpolation-filters="sRGB">
<feFlood flood-opacity="0" result="BackgroundImageFix"/>
<feBlend mode="normal" in="SourceGraphic" in2="BackgroundImageFix" result="shape"/>
<feGaussianBlur stdDeviation="3.75" result="effect1_foregroundBlur_601_2"/>
</filter>
<filter id="filter1_f_601_2" x="32.5" y="24.4473" width="31.1047" height="31.1045" filterUnits="userSpaceOnUse" color-interpolation-filters="sRGB">
<feFlood flood-opacity="0" result="BackgroundImageFix"/>
<feBlend mode="normal" in="SourceGraphic" in2="BackgroundImageFix" result="shape"/>
<feGaussianBlur stdDeviation="3.75" result="effect1_foregroundBlur_601_2"/>
</filter>
<filter id="filter2_f_601_2" x="-3.2" y="-3.2" width="86.4" height="86.4" filterUnits="userSpaceOnUse" color-interpolation-filters="sRGB">
<feFlood flood-opacity="0" result="BackgroundImageFix"/>
<feBlend mode="normal" in="SourceGraphic" in2="BackgroundImageFix" result="shape"/>
<feGaussianBlur stdDeviation="7.1" result="effect1_foregroundBlur_601_2"/>
</filter>
<filter id="filter3_f_601_2" x="9.83247" y="1.6457" width="60.233" height="76.7145" filterUnits="userSpaceOnUse" color-interpolation-filters="sRGB">
<feFlood flood-opacity="0" result="BackgroundImageFix"/>
<feBlend mode="normal" in="SourceGraphic" in2="BackgroundImageFix" result="shape"/>
<feGaussianBlur stdDeviation="7.1" result="effect1_foregroundBlur_601_2"/>
</filter>
<filter id="filter4_f_601_2" x="25.8" y="17.7473" width="44.5047" height="44.5045" filterUnits="userSpaceOnUse" color-interpolation-filters="sRGB">
<feFlood flood-opacity="0" result="BackgroundImageFix"/>
<feBlend mode="normal" in="SourceGraphic" in2="BackgroundImageFix" result="shape"/>
<feGaussianBlur stdDeviation="7.1" result="effect1_foregroundBlur_601_2"/>
</filter>
</defs>
</svg>
