<svg width="80" height="80" viewBox="0 0 80 80" fill="none" xmlns="http://www.w3.org/2000/svg">
<g filter="url(#filter0_f_474_187)">
<path d="M18 15H62L57.9969 60.1777L39.951 65.2857L22.0086 60.1777L18 15ZM32.731 35.4265L32.2471 29.7338L53.3197 29.7394L53.8037 24.2481L26.1935 24.2425L27.6538 41.0212H46.7739L46.0941 48.1993L39.9986 49.8833L33.8052 48.1909L33.4108 43.7711H27.9447L28.6356 52.5073L39.9986 55.5452L51.2665 52.5241L52.8274 35.4293L32.731 35.4265Z" fill="#D4D4D8" fill-opacity="0.42"/>
</g>
<g filter="url(#filter1_f_474_187)">
<path d="M18 15H62L57.9969 60.1777L39.951 65.2857L22.0086 60.1777L18 15ZM32.731 35.4265L32.2471 29.7338L53.3197 29.7394L53.8037 24.2481L26.1935 24.2425L27.6538 41.0212H46.7739L46.0941 48.1993L39.9986 49.8833L33.8052 48.1909L33.4108 43.7711H27.9447L28.6356 52.5073L39.9986 55.5452L51.2665 52.5241L52.8274 35.4293L32.731 35.4265Z" fill="#A1A1AA" fill-opacity="0.65"/>
</g>
<path d="M18 15H62L57.9969 60.1777L39.951 65.2857L22.0086 60.1777L18 15ZM32.731 35.4265L32.2471 29.7338L53.3197 29.7394L53.8037 24.2481L26.1935 24.2425L27.6538 41.0212H46.7739L46.0941 48.1993L39.9986 49.8833L33.8052 48.1909L33.4108 43.7711H27.9447L28.6356 52.5073L39.9986 55.5452L51.2665 52.5241L52.8274 35.4293L32.731 35.4265Z" fill="#F4F4F5"/>
<defs>
<filter id="filter0_f_474_187" x="10.5" y="7.5" width="59" height="65.2861" filterUnits="userSpaceOnUse" color-interpolation-filters="sRGB">
<feFlood flood-opacity="0" result="BackgroundImageFix"/>
<feBlend mode="normal" in="SourceGraphic" in2="BackgroundImageFix" result="shape"/>
<feGaussianBlur stdDeviation="3.75" result="effect1_foregroundBlur_474_187"/>
</filter>
<filter id="filter1_f_474_187" x="3.8" y="0.8" width="72.4" height="78.6861" filterUnits="userSpaceOnUse" color-interpolation-filters="sRGB">
<feFlood flood-opacity="0" result="BackgroundImageFix"/>
<feBlend mode="normal" in="SourceGraphic" in2="BackgroundImageFix" result="shape"/>
<feGaussianBlur stdDeviation="7.1" result="effect1_foregroundBlur_474_187"/>
</filter>
</defs>
</svg>
