<svg width="80" height="80" viewBox="0 0 80 80" fill="none" xmlns="http://www.w3.org/2000/svg">
<g filter="url(#filter0_f_601_26)">
<path d="M40.4967 61C39.8914 61 39.3258 60.8444 38.7975 60.5751L33.4292 57.5295C32.6258 57.1026 33.0286 56.9469 33.2707 56.8691C34.3624 56.522 34.5649 56.4463 35.6941 55.8321C35.8173 55.7543 35.978 55.7901 36.1012 55.8679L40.2172 58.2236C40.38 58.2993 40.5825 58.2993 40.7036 58.2236L56.8129 49.3119C56.9758 49.2362 57.055 49.0805 57.055 48.887V31.0972C57.055 30.9058 56.9758 30.7501 56.8129 30.6744L40.7036 21.8005C40.5429 21.7227 40.3404 21.7227 40.2172 21.8005L24.1034 30.6723C23.9428 30.748 23.8613 30.9436 23.8613 31.0951V48.8828C23.8613 49.0363 23.9428 49.2319 24.1034 49.3077L28.5055 51.7412C30.887 52.8938 32.3837 51.5414 32.3837 50.1953V32.641C32.3837 32.4096 32.584 32.1762 32.8679 32.1762H34.9281C35.1658 32.1762 35.4123 32.3697 35.4123 32.641V50.1974C35.4123 53.2451 33.6779 55.0224 30.6493 55.0224C29.7205 55.0224 28.9941 55.0224 26.934 54.0548L22.697 51.7433C22.1808 51.4565 21.7523 51.0453 21.4545 50.5507C21.1567 50.0561 21 49.4955 21 48.9249V31.135C21 29.9782 21.6449 28.8971 22.697 28.3187L38.7997 19.4069C39.3224 19.1398 39.9061 19 40.4989 19C41.0917 19 41.6753 19.1398 42.1981 19.4069L58.303 28.3187C59.3573 28.895 60 29.9782 60 31.135V48.9249C60 50.0796 59.3551 51.1607 58.303 51.7433L42.1981 60.6529C41.6676 60.8843 41.0624 61 40.4967 61ZM45.4622 48.7671C38.3969 48.7671 36.9442 45.6794 36.9442 43.0587C36.9442 42.8273 37.1467 42.5939 37.4285 42.5939H39.5282C39.7704 42.5939 39.9707 42.7474 39.9707 42.9809C40.2942 45.0232 41.2208 46.0286 45.504 46.0286C48.8936 46.0286 50.3507 45.2924 50.3507 43.5572C50.3507 42.5539 49.9435 41.822 44.6566 41.3214C40.2568 40.9007 37.5121 39.9689 37.5121 36.6142C37.5121 33.4907 40.2568 31.6377 44.8613 31.6377C50.0271 31.6377 52.5715 33.3393 52.8929 37.039C52.889 37.1639 52.8461 37.2848 52.7696 37.3861C52.6882 37.4618 52.5693 37.5396 52.4483 37.5396H50.3507C50.247 37.5375 50.147 37.5025 50.0665 37.44C49.986 37.3775 49.9295 37.2912 49.9061 37.1947C49.4197 35.0661 48.1695 34.3762 44.8613 34.3762C41.1438 34.3762 40.6992 35.6109 40.6992 36.5363C40.6992 37.6532 41.2208 38.0002 46.2326 38.6186C51.1981 39.2349 53.54 40.1225 53.54 43.4436C53.496 46.8405 50.5928 48.7671 45.4622 48.7671Z" fill="#D4D4D8" fill-opacity="0.42"/>
</g>
<g filter="url(#filter1_f_601_26)">
<path d="M40.4967 61C39.8914 61 39.3258 60.8444 38.7975 60.5751L33.4292 57.5295C32.6258 57.1026 33.0286 56.9469 33.2707 56.8691C34.3624 56.522 34.5649 56.4463 35.6941 55.8321C35.8173 55.7543 35.978 55.7901 36.1012 55.8679L40.2172 58.2236C40.38 58.2993 40.5825 58.2993 40.7036 58.2236L56.8129 49.3119C56.9758 49.2362 57.055 49.0805 57.055 48.887V31.0972C57.055 30.9058 56.9758 30.7501 56.8129 30.6744L40.7036 21.8005C40.5429 21.7227 40.3404 21.7227 40.2172 21.8005L24.1034 30.6723C23.9428 30.748 23.8613 30.9436 23.8613 31.0951V48.8828C23.8613 49.0363 23.9428 49.2319 24.1034 49.3077L28.5055 51.7412C30.887 52.8938 32.3837 51.5414 32.3837 50.1953V32.641C32.3837 32.4096 32.584 32.1762 32.8679 32.1762H34.9281C35.1658 32.1762 35.4123 32.3697 35.4123 32.641V50.1974C35.4123 53.2451 33.6779 55.0224 30.6493 55.0224C29.7205 55.0224 28.9941 55.0224 26.934 54.0548L22.697 51.7433C22.1808 51.4565 21.7523 51.0453 21.4545 50.5507C21.1567 50.0561 21 49.4955 21 48.9249V31.135C21 29.9782 21.6449 28.8971 22.697 28.3187L38.7997 19.4069C39.3224 19.1398 39.9061 19 40.4989 19C41.0917 19 41.6753 19.1398 42.1981 19.4069L58.303 28.3187C59.3573 28.895 60 29.9782 60 31.135V48.9249C60 50.0796 59.3551 51.1607 58.303 51.7433L42.1981 60.6529C41.6676 60.8843 41.0624 61 40.4967 61ZM45.4622 48.7671C38.3969 48.7671 36.9442 45.6794 36.9442 43.0587C36.9442 42.8273 37.1467 42.5939 37.4285 42.5939H39.5282C39.7704 42.5939 39.9707 42.7474 39.9707 42.9809C40.2942 45.0232 41.2208 46.0286 45.504 46.0286C48.8936 46.0286 50.3507 45.2924 50.3507 43.5572C50.3507 42.5539 49.9435 41.822 44.6566 41.3214C40.2568 40.9007 37.5121 39.9689 37.5121 36.6142C37.5121 33.4907 40.2568 31.6377 44.8613 31.6377C50.0271 31.6377 52.5715 33.3393 52.8929 37.039C52.889 37.1639 52.8461 37.2848 52.7696 37.3861C52.6882 37.4618 52.5693 37.5396 52.4483 37.5396H50.3507C50.247 37.5375 50.147 37.5025 50.0665 37.44C49.986 37.3775 49.9295 37.2912 49.9061 37.1947C49.4197 35.0661 48.1695 34.3762 44.8613 34.3762C41.1438 34.3762 40.6992 35.6109 40.6992 36.5363C40.6992 37.6532 41.2208 38.0002 46.2326 38.6186C51.1981 39.2349 53.54 40.1225 53.54 43.4436C53.496 46.8405 50.5928 48.7671 45.4622 48.7671Z" fill="#A1A1AA" fill-opacity="0.65"/>
</g>
<path d="M40.4967 61C39.8914 61 39.3258 60.8444 38.7975 60.5751L33.4292 57.5295C32.6258 57.1026 33.0286 56.9469 33.2707 56.8691C34.3624 56.522 34.5649 56.4463 35.6941 55.8321C35.8173 55.7543 35.978 55.7901 36.1012 55.8679L40.2172 58.2236C40.38 58.2993 40.5825 58.2993 40.7036 58.2236L56.8129 49.3119C56.9758 49.2362 57.055 49.0805 57.055 48.887V31.0972C57.055 30.9058 56.9758 30.7501 56.8129 30.6744L40.7036 21.8005C40.5429 21.7227 40.3404 21.7227 40.2172 21.8005L24.1034 30.6723C23.9428 30.748 23.8613 30.9436 23.8613 31.0951V48.8828C23.8613 49.0363 23.9428 49.2319 24.1034 49.3077L28.5055 51.7412C30.887 52.8938 32.3837 51.5414 32.3837 50.1953V32.641C32.3837 32.4096 32.584 32.1762 32.8679 32.1762H34.9281C35.1658 32.1762 35.4123 32.3697 35.4123 32.641V50.1974C35.4123 53.2451 33.6779 55.0224 30.6493 55.0224C29.7205 55.0224 28.9941 55.0224 26.934 54.0548L22.697 51.7433C22.1808 51.4565 21.7523 51.0453 21.4545 50.5507C21.1567 50.0561 21 49.4955 21 48.9249V31.135C21 29.9782 21.6449 28.8971 22.697 28.3187L38.7997 19.4069C39.3224 19.1398 39.9061 19 40.4989 19C41.0917 19 41.6753 19.1398 42.1981 19.4069L58.303 28.3187C59.3573 28.895 60 29.9782 60 31.135V48.9249C60 50.0796 59.3551 51.1607 58.303 51.7433L42.1981 60.6529C41.6676 60.8843 41.0624 61 40.4967 61ZM45.4622 48.7671C38.3969 48.7671 36.9442 45.6794 36.9442 43.0587C36.9442 42.8273 37.1467 42.5939 37.4285 42.5939H39.5282C39.7704 42.5939 39.9707 42.7474 39.9707 42.9809C40.2942 45.0232 41.2208 46.0286 45.504 46.0286C48.8936 46.0286 50.3507 45.2924 50.3507 43.5572C50.3507 42.5539 49.9435 41.822 44.6566 41.3214C40.2568 40.9007 37.5121 39.9689 37.5121 36.6142C37.5121 33.4907 40.2568 31.6377 44.8613 31.6377C50.0271 31.6377 52.5715 33.3393 52.8929 37.039C52.889 37.1639 52.8461 37.2848 52.7696 37.3861C52.6882 37.4618 52.5693 37.5396 52.4483 37.5396H50.3507C50.247 37.5375 50.147 37.5025 50.0665 37.44C49.986 37.3775 49.9295 37.2912 49.9061 37.1947C49.4197 35.0661 48.1695 34.3762 44.8613 34.3762C41.1438 34.3762 40.6992 35.6109 40.6992 36.5363C40.6992 37.6532 41.2208 38.0002 46.2326 38.6186C51.1981 39.2349 53.54 40.1225 53.54 43.4436C53.496 46.8405 50.5928 48.7671 45.4622 48.7671Z" fill="#F4F4F5"/>
<defs>
<filter id="filter0_f_601_26" x="13.5" y="11.5" width="54" height="57" filterUnits="userSpaceOnUse" color-interpolation-filters="sRGB">
<feFlood flood-opacity="0" result="BackgroundImageFix"/>
<feBlend mode="normal" in="SourceGraphic" in2="BackgroundImageFix" result="shape"/>
<feGaussianBlur stdDeviation="3.75" result="effect1_foregroundBlur_601_26"/>
</filter>
<filter id="filter1_f_601_26" x="6.8" y="4.8" width="67.4" height="70.4" filterUnits="userSpaceOnUse" color-interpolation-filters="sRGB">
<feFlood flood-opacity="0" result="BackgroundImageFix"/>
<feBlend mode="normal" in="SourceGraphic" in2="BackgroundImageFix" result="shape"/>
<feGaussianBlur stdDeviation="7.1" result="effect1_foregroundBlur_601_26"/>
</filter>
</defs>
</svg>
