<svg width="80" height="80" viewBox="0 0 80 80" fill="none" xmlns="http://www.w3.org/2000/svg">
<g filter="url(#filter0_f_474_193)">
<path d="M45.088 48.4408C43.9092 50.1075 42.6877 51.6254 41.4575 52.9624C44.9338 56.3361 48.1669 57.9159 49.9606 56.8803C51.7543 55.8447 52.0027 52.2548 50.8193 47.5576C49.0462 47.9544 47.121 48.2533 45.088 48.4408ZM42.3649 48.6219C41.5877 48.6541 40.7986 48.6705 39.9999 48.6705C39.2013 48.6705 38.4122 48.6541 37.6351 48.6219C38.4182 49.6452 39.211 50.5934 39.9999 51.4573C40.7888 50.5934 41.5816 49.6452 42.3649 48.6219ZM52.8432 32.2129C58.3823 33.8019 62 36.4419 62 39.628C62 42.8139 58.3823 45.4541 52.8432 47.043C54.2368 52.6347 53.7591 57.0875 50.9999 58.6805C48.2409 60.2734 44.1457 58.4605 39.9999 54.4579C35.8543 58.4605 31.7591 60.2734 29 58.6805C26.2409 57.0875 25.7632 52.6347 27.1567 47.043C21.6175 45.4541 18 42.8139 18 39.628C18 36.4419 21.6175 33.8019 27.1567 32.2129C25.7632 26.6213 26.2409 22.1684 29 20.5754C31.7591 18.9824 35.8543 20.7953 39.9999 24.7978C44.1457 20.7953 48.2409 18.9824 50.9999 20.5754C53.7591 22.1684 54.2368 26.6213 52.8432 32.2129ZM50.8193 31.6984C52.0027 27.0011 51.7543 23.4112 49.9606 22.3757C48.1669 21.3401 44.9338 22.9197 41.4575 26.2933C42.6877 27.6304 43.9092 29.1482 45.088 30.815C47.121 31.0026 49.0462 31.3014 50.8193 31.6984ZM29.1806 47.5576C27.9971 52.2548 28.2456 55.8447 30.0394 56.8803C31.8331 57.9159 35.0662 56.3361 38.5425 52.9624C37.3121 51.6254 36.0906 50.1075 34.9118 48.4408C32.8789 48.2533 30.9537 47.9544 29.1806 47.5576ZM37.6351 30.634C38.4122 30.6018 39.2013 30.5854 39.9999 30.5854C40.7986 30.5854 41.5877 30.6018 42.3649 30.634C41.5816 29.6107 40.7888 28.6625 39.9999 27.7986C39.211 28.6625 38.4182 29.6107 37.6351 30.634ZM34.9118 30.815C36.0906 29.1482 37.3121 27.6304 38.5425 26.2933C35.0662 22.9197 31.8331 21.3401 30.0394 22.3757C28.2456 23.4112 27.9971 27.0011 29.1806 31.6984C30.9537 31.3014 32.8789 31.0026 34.9118 30.815ZM43.9362 46.4459C44.6546 45.3921 45.3566 44.2775 46.0307 43.1099C46.7048 41.9421 47.3191 40.7769 47.8725 39.628C47.3191 38.4789 46.7048 37.3137 46.0307 36.1461C45.3566 34.9783 44.6546 33.8638 43.9362 32.81C42.6644 32.7147 41.3484 32.6642 39.9999 32.6642C38.6517 32.6642 37.3354 32.7147 36.0636 32.81C35.3452 33.8638 34.6433 34.9783 33.9692 36.1461C33.2949 37.3137 32.6807 38.4789 32.1273 39.628C32.6807 40.7769 33.2949 41.9421 33.9692 43.1099C34.6433 44.2775 35.3452 45.3921 36.0636 46.4459C37.3354 46.5411 38.6517 46.5918 39.9999 46.5918C41.3484 46.5918 42.6644 46.5411 43.9362 46.4459ZM46.6066 46.1729C47.8843 46.0064 49.1019 45.794 50.2445 45.5426C49.8907 44.4274 49.4661 43.2668 48.9713 42.0769C48.6106 42.7661 48.2302 43.4575 47.8309 44.1493C47.4316 44.8408 47.0229 45.516 46.6066 46.1729ZM33.3934 33.0829C32.1156 33.2496 30.8981 33.462 29.7554 33.7133C30.1091 34.8284 30.5339 35.9892 31.0286 37.179C31.3893 36.49 31.7695 35.7983 32.1689 35.1067C32.5683 34.415 32.977 33.7399 33.3934 33.0829ZM29.7554 45.5426C30.8981 45.794 32.1156 46.0064 33.3934 46.1729C32.977 45.516 32.5683 44.8408 32.1689 44.1493C31.7695 43.4575 31.3893 42.7661 31.0286 42.0769C30.5339 43.2668 30.1091 44.4274 29.7554 45.5426ZM27.7231 45.0329C28.2659 43.2991 28.9697 41.4823 29.8237 39.628C28.9697 37.7735 28.2659 35.957 27.7231 34.2228C23.0634 35.5466 20.0787 37.5568 20.0787 39.628C20.0787 41.699 23.0634 43.7092 27.7231 45.0329ZM50.2445 33.7133C49.1019 33.462 47.8843 33.2496 46.6066 33.0829C47.0229 33.7399 47.4316 34.415 47.8309 35.1067C48.2302 35.7983 48.6106 36.49 48.9713 37.179C49.4661 35.9892 49.8907 34.8284 50.2445 33.7133ZM52.2769 34.2228C51.734 35.957 51.0303 37.7735 50.1762 39.628C51.0303 41.4823 51.734 43.2991 52.2769 45.0329C56.9366 43.7092 59.9213 41.699 59.9213 39.628C59.9213 37.5568 56.9366 35.5466 52.2769 34.2228ZM39.9999 43.5341C37.8426 43.5341 36.0937 41.7853 36.0937 39.628C36.0937 37.4705 37.8426 35.7217 39.9999 35.7217C42.1574 35.7217 43.9063 37.4705 43.9063 39.628C43.9063 41.7853 42.1574 43.5341 39.9999 43.5341Z" fill="#D4D4D8" fill-opacity="0.42"/>
</g>
<g filter="url(#filter1_f_474_193)">
<path d="M45.088 48.4408C43.9092 50.1075 42.6877 51.6254 41.4575 52.9624C44.9338 56.3361 48.1669 57.9159 49.9606 56.8803C51.7543 55.8447 52.0027 52.2548 50.8193 47.5576C49.0462 47.9544 47.121 48.2533 45.088 48.4408ZM42.3649 48.6219C41.5877 48.6541 40.7986 48.6705 39.9999 48.6705C39.2013 48.6705 38.4122 48.6541 37.6351 48.6219C38.4182 49.6452 39.211 50.5934 39.9999 51.4573C40.7888 50.5934 41.5816 49.6452 42.3649 48.6219ZM52.8432 32.2129C58.3823 33.8019 62 36.4419 62 39.628C62 42.8139 58.3823 45.4541 52.8432 47.043C54.2368 52.6347 53.7591 57.0875 50.9999 58.6805C48.2409 60.2734 44.1457 58.4605 39.9999 54.4579C35.8543 58.4605 31.7591 60.2734 29 58.6805C26.2409 57.0875 25.7632 52.6347 27.1567 47.043C21.6175 45.4541 18 42.8139 18 39.628C18 36.4419 21.6175 33.8019 27.1567 32.2129C25.7632 26.6213 26.2409 22.1684 29 20.5754C31.7591 18.9824 35.8543 20.7953 39.9999 24.7978C44.1457 20.7953 48.2409 18.9824 50.9999 20.5754C53.7591 22.1684 54.2368 26.6213 52.8432 32.2129ZM50.8193 31.6984C52.0027 27.0011 51.7543 23.4112 49.9606 22.3757C48.1669 21.3401 44.9338 22.9197 41.4575 26.2933C42.6877 27.6304 43.9092 29.1482 45.088 30.815C47.121 31.0026 49.0462 31.3014 50.8193 31.6984ZM29.1806 47.5576C27.9971 52.2548 28.2456 55.8447 30.0394 56.8803C31.8331 57.9159 35.0662 56.3361 38.5425 52.9624C37.3121 51.6254 36.0906 50.1075 34.9118 48.4408C32.8789 48.2533 30.9537 47.9544 29.1806 47.5576ZM37.6351 30.634C38.4122 30.6018 39.2013 30.5854 39.9999 30.5854C40.7986 30.5854 41.5877 30.6018 42.3649 30.634C41.5816 29.6107 40.7888 28.6625 39.9999 27.7986C39.211 28.6625 38.4182 29.6107 37.6351 30.634ZM34.9118 30.815C36.0906 29.1482 37.3121 27.6304 38.5425 26.2933C35.0662 22.9197 31.8331 21.3401 30.0394 22.3757C28.2456 23.4112 27.9971 27.0011 29.1806 31.6984C30.9537 31.3014 32.8789 31.0026 34.9118 30.815ZM43.9362 46.4459C44.6546 45.3921 45.3566 44.2775 46.0307 43.1099C46.7048 41.9421 47.3191 40.7769 47.8725 39.628C47.3191 38.4789 46.7048 37.3137 46.0307 36.1461C45.3566 34.9783 44.6546 33.8638 43.9362 32.81C42.6644 32.7147 41.3484 32.6642 39.9999 32.6642C38.6517 32.6642 37.3354 32.7147 36.0636 32.81C35.3452 33.8638 34.6433 34.9783 33.9692 36.1461C33.2949 37.3137 32.6807 38.4789 32.1273 39.628C32.6807 40.7769 33.2949 41.9421 33.9692 43.1099C34.6433 44.2775 35.3452 45.3921 36.0636 46.4459C37.3354 46.5411 38.6517 46.5918 39.9999 46.5918C41.3484 46.5918 42.6644 46.5411 43.9362 46.4459ZM46.6066 46.1729C47.8843 46.0064 49.1019 45.794 50.2445 45.5426C49.8907 44.4274 49.4661 43.2668 48.9713 42.0769C48.6106 42.7661 48.2302 43.4575 47.8309 44.1493C47.4316 44.8408 47.0229 45.516 46.6066 46.1729ZM33.3934 33.0829C32.1156 33.2496 30.8981 33.462 29.7554 33.7133C30.1091 34.8284 30.5339 35.9892 31.0286 37.179C31.3893 36.49 31.7695 35.7983 32.1689 35.1067C32.5683 34.415 32.977 33.7399 33.3934 33.0829ZM29.7554 45.5426C30.8981 45.794 32.1156 46.0064 33.3934 46.1729C32.977 45.516 32.5683 44.8408 32.1689 44.1493C31.7695 43.4575 31.3893 42.7661 31.0286 42.0769C30.5339 43.2668 30.1091 44.4274 29.7554 45.5426ZM27.7231 45.0329C28.2659 43.2991 28.9697 41.4823 29.8237 39.628C28.9697 37.7735 28.2659 35.957 27.7231 34.2228C23.0634 35.5466 20.0787 37.5568 20.0787 39.628C20.0787 41.699 23.0634 43.7092 27.7231 45.0329ZM50.2445 33.7133C49.1019 33.462 47.8843 33.2496 46.6066 33.0829C47.0229 33.7399 47.4316 34.415 47.8309 35.1067C48.2302 35.7983 48.6106 36.49 48.9713 37.179C49.4661 35.9892 49.8907 34.8284 50.2445 33.7133ZM52.2769 34.2228C51.734 35.957 51.0303 37.7735 50.1762 39.628C51.0303 41.4823 51.734 43.2991 52.2769 45.0329C56.9366 43.7092 59.9213 41.699 59.9213 39.628C59.9213 37.5568 56.9366 35.5466 52.2769 34.2228ZM39.9999 43.5341C37.8426 43.5341 36.0937 41.7853 36.0937 39.628C36.0937 37.4705 37.8426 35.7217 39.9999 35.7217C42.1574 35.7217 43.9063 37.4705 43.9063 39.628C43.9063 41.7853 42.1574 43.5341 39.9999 43.5341Z" fill="#A1A1AA" fill-opacity="0.65"/>
</g>
<path d="M45.088 48.4408C43.9092 50.1075 42.6877 51.6254 41.4575 52.9624C44.9338 56.3361 48.1669 57.9159 49.9606 56.8803C51.7543 55.8447 52.0027 52.2548 50.8193 47.5576C49.0462 47.9544 47.121 48.2533 45.088 48.4408ZM42.3649 48.6219C41.5877 48.6541 40.7986 48.6705 39.9999 48.6705C39.2013 48.6705 38.4122 48.6541 37.6351 48.6219C38.4182 49.6452 39.211 50.5934 39.9999 51.4573C40.7888 50.5934 41.5816 49.6452 42.3649 48.6219ZM52.8432 32.2129C58.3823 33.8019 62 36.4419 62 39.628C62 42.8139 58.3823 45.4541 52.8432 47.043C54.2368 52.6347 53.7591 57.0875 50.9999 58.6805C48.2409 60.2734 44.1457 58.4605 39.9999 54.4579C35.8543 58.4605 31.7591 60.2734 29 58.6805C26.2409 57.0875 25.7632 52.6347 27.1567 47.043C21.6175 45.4541 18 42.8139 18 39.628C18 36.4419 21.6175 33.8019 27.1567 32.2129C25.7632 26.6213 26.2409 22.1684 29 20.5754C31.7591 18.9824 35.8543 20.7953 39.9999 24.7978C44.1457 20.7953 48.2409 18.9824 50.9999 20.5754C53.7591 22.1684 54.2368 26.6213 52.8432 32.2129ZM50.8193 31.6984C52.0027 27.0011 51.7543 23.4112 49.9606 22.3757C48.1669 21.3401 44.9338 22.9197 41.4575 26.2933C42.6877 27.6304 43.9092 29.1482 45.088 30.815C47.121 31.0026 49.0462 31.3014 50.8193 31.6984ZM29.1806 47.5576C27.9971 52.2548 28.2456 55.8447 30.0394 56.8803C31.8331 57.9159 35.0662 56.3361 38.5425 52.9624C37.3121 51.6254 36.0906 50.1075 34.9118 48.4408C32.8789 48.2533 30.9537 47.9544 29.1806 47.5576ZM37.6351 30.634C38.4122 30.6018 39.2013 30.5854 39.9999 30.5854C40.7986 30.5854 41.5877 30.6018 42.3649 30.634C41.5816 29.6107 40.7888 28.6625 39.9999 27.7986C39.211 28.6625 38.4182 29.6107 37.6351 30.634ZM34.9118 30.815C36.0906 29.1482 37.3121 27.6304 38.5425 26.2933C35.0662 22.9197 31.8331 21.3401 30.0394 22.3757C28.2456 23.4112 27.9971 27.0011 29.1806 31.6984C30.9537 31.3014 32.8789 31.0026 34.9118 30.815ZM43.9362 46.4459C44.6546 45.3921 45.3566 44.2775 46.0307 43.1099C46.7048 41.9421 47.3191 40.7769 47.8725 39.628C47.3191 38.4789 46.7048 37.3137 46.0307 36.1461C45.3566 34.9783 44.6546 33.8638 43.9362 32.81C42.6644 32.7147 41.3484 32.6642 39.9999 32.6642C38.6517 32.6642 37.3354 32.7147 36.0636 32.81C35.3452 33.8638 34.6433 34.9783 33.9692 36.1461C33.2949 37.3137 32.6807 38.4789 32.1273 39.628C32.6807 40.7769 33.2949 41.9421 33.9692 43.1099C34.6433 44.2775 35.3452 45.3921 36.0636 46.4459C37.3354 46.5411 38.6517 46.5918 39.9999 46.5918C41.3484 46.5918 42.6644 46.5411 43.9362 46.4459ZM46.6066 46.1729C47.8843 46.0064 49.1019 45.794 50.2445 45.5426C49.8907 44.4274 49.4661 43.2668 48.9713 42.0769C48.6106 42.7661 48.2302 43.4575 47.8309 44.1493C47.4316 44.8408 47.0229 45.516 46.6066 46.1729ZM33.3934 33.0829C32.1156 33.2496 30.8981 33.462 29.7554 33.7133C30.1091 34.8284 30.5339 35.9892 31.0286 37.179C31.3893 36.49 31.7695 35.7983 32.1689 35.1067C32.5683 34.415 32.977 33.7399 33.3934 33.0829ZM29.7554 45.5426C30.8981 45.794 32.1156 46.0064 33.3934 46.1729C32.977 45.516 32.5683 44.8408 32.1689 44.1493C31.7695 43.4575 31.3893 42.7661 31.0286 42.0769C30.5339 43.2668 30.1091 44.4274 29.7554 45.5426ZM27.7231 45.0329C28.2659 43.2991 28.9697 41.4823 29.8237 39.628C28.9697 37.7735 28.2659 35.957 27.7231 34.2228C23.0634 35.5466 20.0787 37.5568 20.0787 39.628C20.0787 41.699 23.0634 43.7092 27.7231 45.0329ZM50.2445 33.7133C49.1019 33.462 47.8843 33.2496 46.6066 33.0829C47.0229 33.7399 47.4316 34.415 47.8309 35.1067C48.2302 35.7983 48.6106 36.49 48.9713 37.179C49.4661 35.9892 49.8907 34.8284 50.2445 33.7133ZM52.2769 34.2228C51.734 35.957 51.0303 37.7735 50.1762 39.628C51.0303 41.4823 51.734 43.2991 52.2769 45.0329C56.9366 43.7092 59.9213 41.699 59.9213 39.628C59.9213 37.5568 56.9366 35.5466 52.2769 34.2228ZM39.9999 43.5341C37.8426 43.5341 36.0937 41.7853 36.0937 39.628C36.0937 37.4705 37.8426 35.7217 39.9999 35.7217C42.1574 35.7217 43.9063 37.4705 43.9063 39.628C43.9063 41.7853 42.1574 43.5341 39.9999 43.5341Z" fill="#F4F4F5"/>
<defs>
<filter id="filter0_f_474_193" x="10.5" y="12.5" width="59" height="54.2559" filterUnits="userSpaceOnUse" color-interpolation-filters="sRGB">
<feFlood flood-opacity="0" result="BackgroundImageFix"/>
<feBlend mode="normal" in="SourceGraphic" in2="BackgroundImageFix" result="shape"/>
<feGaussianBlur stdDeviation="3.75" result="effect1_foregroundBlur_474_193"/>
</filter>
<filter id="filter1_f_474_193" x="3.8" y="5.8" width="72.4" height="67.6559" filterUnits="userSpaceOnUse" color-interpolation-filters="sRGB">
<feFlood flood-opacity="0" result="BackgroundImageFix"/>
<feBlend mode="normal" in="SourceGraphic" in2="BackgroundImageFix" result="shape"/>
<feGaussianBlur stdDeviation="7.1" result="effect1_foregroundBlur_474_193"/>
</filter>
</defs>
</svg>
