<svg width="80" height="80" viewBox="0 0 80 80" fill="none" xmlns="http://www.w3.org/2000/svg">
<g filter="url(#filter0_f_474_150)">
<path d="M40 26C34.1333 26 30.4667 28.9333 29 34.8C31.2 31.8667 33.7667 30.7667 36.7 31.5C38.3738 31.918 39.5692 33.1317 40.8946 34.4773C43.0524 36.6663 45.5477 39.2 51 39.2C56.8666 39.2 60.5334 36.2666 62 30.4C59.8 33.3333 57.2334 34.4333 54.3 33.7C52.6261 33.282 51.4309 32.0683 50.1054 30.7227C47.9494 28.5337 45.4541 26 40 26ZM29 39.2C23.1333 39.2 19.4667 42.1334 18 48C20.2 45.0666 22.7667 43.9666 25.7 44.7C27.3738 45.118 28.5692 46.3317 29.8947 47.6774C32.0525 49.8663 34.5477 52.4 40 52.4C45.8666 52.4 49.5334 49.4666 51 43.6C48.8 46.5334 46.2334 47.6334 43.3 46.9C41.6261 46.482 40.4307 45.2683 39.1054 43.9226C36.9494 41.7337 34.4542 39.2 29 39.2Z" fill="#D4D4D8" fill-opacity="0.42"/>
</g>
<g filter="url(#filter1_f_474_150)">
<path d="M40 26C34.1333 26 30.4667 28.9333 29 34.8C31.2 31.8667 33.7667 30.7667 36.7 31.5C38.3738 31.918 39.5692 33.1317 40.8946 34.4773C43.0524 36.6663 45.5477 39.2 51 39.2C56.8666 39.2 60.5334 36.2666 62 30.4C59.8 33.3333 57.2334 34.4333 54.3 33.7C52.6261 33.282 51.4309 32.0683 50.1054 30.7227C47.9494 28.5337 45.4541 26 40 26ZM29 39.2C23.1333 39.2 19.4667 42.1334 18 48C20.2 45.0666 22.7667 43.9666 25.7 44.7C27.3738 45.118 28.5692 46.3317 29.8947 47.6774C32.0525 49.8663 34.5477 52.4 40 52.4C45.8666 52.4 49.5334 49.4666 51 43.6C48.8 46.5334 46.2334 47.6334 43.3 46.9C41.6261 46.482 40.4307 45.2683 39.1054 43.9226C36.9494 41.7337 34.4542 39.2 29 39.2Z" fill="#A1A1AA" fill-opacity="0.65"/>
</g>
<path d="M40 26C34.1333 26 30.4667 28.9333 29 34.8C31.2 31.8667 33.7667 30.7667 36.7 31.5C38.3738 31.918 39.5692 33.1317 40.8946 34.4773C43.0524 36.6663 45.5477 39.2 51 39.2C56.8666 39.2 60.5334 36.2666 62 30.4C59.8 33.3333 57.2334 34.4333 54.3 33.7C52.6261 33.282 51.4309 32.0683 50.1054 30.7227C47.9494 28.5337 45.4541 26 40 26ZM29 39.2C23.1333 39.2 19.4667 42.1334 18 48C20.2 45.0666 22.7667 43.9666 25.7 44.7C27.3738 45.118 28.5692 46.3317 29.8947 47.6774C32.0525 49.8663 34.5477 52.4 40 52.4C45.8666 52.4 49.5334 49.4666 51 43.6C48.8 46.5334 46.2334 47.6334 43.3 46.9C41.6261 46.482 40.4307 45.2683 39.1054 43.9226C36.9494 41.7337 34.4542 39.2 29 39.2Z" fill="#F4F4F5"/>
<defs>
<filter id="filter0_f_474_150" x="10.5" y="18.5" width="59" height="41.4004" filterUnits="userSpaceOnUse" color-interpolation-filters="sRGB">
<feFlood flood-opacity="0" result="BackgroundImageFix"/>
<feBlend mode="normal" in="SourceGraphic" in2="BackgroundImageFix" result="shape"/>
<feGaussianBlur stdDeviation="3.75" result="effect1_foregroundBlur_474_150"/>
</filter>
<filter id="filter1_f_474_150" x="3.8" y="11.8" width="72.4" height="54.8004" filterUnits="userSpaceOnUse" color-interpolation-filters="sRGB">
<feFlood flood-opacity="0" result="BackgroundImageFix"/>
<feBlend mode="normal" in="SourceGraphic" in2="BackgroundImageFix" result="shape"/>
<feGaussianBlur stdDeviation="7.1" result="effect1_foregroundBlur_474_150"/>
</filter>
</defs>
</svg>
