<svg width="80" height="80" viewBox="0 0 80 80" fill="none" xmlns="http://www.w3.org/2000/svg">
<g filter="url(#filter0_f_258_937)">
<path d="M25 17.5C20.8579 17.5 17.5 20.8579 17.5 25V55C17.5 59.1423 20.8579 62.5 25 62.5H55C59.1423 62.5 62.5 59.1423 62.5 55V25C62.5 20.8579 59.1423 17.5 55 17.5H25ZM43.336 50.1375C45.1327 51.5858 46.9293 52.3008 48.726 52.2825C49.826 52.2825 50.6693 52.0807 51.256 51.6775C51.8242 51.2925 52.1085 50.7425 52.1085 50.0275C52.1085 49.2942 51.8242 48.6707 51.256 48.1575C50.6693 47.6442 49.5602 47.1308 47.9285 46.6175C45.9668 46.0493 44.4542 45.3158 43.391 44.4175C42.346 43.5193 41.8143 42.2633 41.796 40.65C41.796 39.1283 42.456 37.8542 43.776 36.8275C45.0592 35.8008 46.7002 35.2875 48.6985 35.2875C51.4852 35.2875 53.7218 35.9657 55.4085 37.3225L53.4835 40.32C52.8053 39.7882 52.026 39.4033 51.146 39.165C50.266 38.89 49.4777 38.7525 48.781 38.7525C47.8277 38.7525 47.0667 38.9268 46.4985 39.275C45.9302 39.6233 45.646 40.0818 45.646 40.65C45.646 41.2733 45.9943 41.805 46.691 42.245C47.3878 42.6667 48.5792 43.1342 50.266 43.6475C52.301 44.2525 53.7493 45.0592 54.611 46.0675C55.4728 47.0758 55.9035 48.3592 55.9035 49.9175C55.9035 51.5125 55.2892 52.8875 54.061 54.0425C52.851 55.1793 51.091 55.775 48.781 55.83C45.756 55.83 43.226 54.9225 41.191 53.1075L43.336 50.1375ZM29.5101 51.7325C30.0968 52.0993 30.8026 52.2825 31.6276 52.2825C32.4893 52.2825 33.2043 52.035 33.7726 51.54C34.341 51.0267 34.6251 50.1375 34.6251 48.8725V35.6175H38.3377V49.5875C38.2828 51.7508 37.6593 53.3092 36.4678 54.2625C35.7892 54.8307 35.0467 55.2342 34.2401 55.4725C33.4335 55.7107 32.6543 55.83 31.9026 55.83C30.5276 55.83 29.3085 55.5917 28.2451 55.115C27.1085 54.6017 26.1551 53.6943 25.3851 52.3925L27.9701 50.275C28.4468 50.9168 28.9601 51.4025 29.5101 51.7325Z" fill="#A1A1AA" fill-opacity="0.7"/>
</g>
<path d="M25 17.5C20.8579 17.5 17.5 20.8579 17.5 25V55C17.5 59.1423 20.8579 62.5 25 62.5H55C59.1423 62.5 62.5 59.1423 62.5 55V25C62.5 20.8579 59.1423 17.5 55 17.5H25ZM43.336 50.1375C45.1327 51.5858 46.9293 52.3008 48.726 52.2825C49.826 52.2825 50.6693 52.0807 51.256 51.6775C51.8242 51.2925 52.1085 50.7425 52.1085 50.0275C52.1085 49.2942 51.8242 48.6707 51.256 48.1575C50.6693 47.6442 49.5602 47.1308 47.9285 46.6175C45.9668 46.0493 44.4542 45.3158 43.391 44.4175C42.346 43.5193 41.8143 42.2633 41.796 40.65C41.796 39.1283 42.456 37.8542 43.776 36.8275C45.0592 35.8008 46.7002 35.2875 48.6985 35.2875C51.4852 35.2875 53.7218 35.9657 55.4085 37.3225L53.4835 40.32C52.8053 39.7882 52.026 39.4033 51.146 39.165C50.266 38.89 49.4777 38.7525 48.781 38.7525C47.8277 38.7525 47.0667 38.9268 46.4985 39.275C45.9302 39.6233 45.646 40.0818 45.646 40.65C45.646 41.2733 45.9943 41.805 46.691 42.245C47.3878 42.6667 48.5792 43.1342 50.266 43.6475C52.301 44.2525 53.7493 45.0592 54.611 46.0675C55.4728 47.0758 55.9035 48.3592 55.9035 49.9175C55.9035 51.5125 55.2892 52.8875 54.061 54.0425C52.851 55.1793 51.091 55.775 48.781 55.83C45.756 55.83 43.226 54.9225 41.191 53.1075L43.336 50.1375ZM29.5101 51.7325C30.0968 52.0993 30.8026 52.2825 31.6276 52.2825C32.4893 52.2825 33.2043 52.035 33.7726 51.54C34.341 51.0267 34.6251 50.1375 34.6251 48.8725V35.6175H38.3377V49.5875C38.2828 51.7508 37.6593 53.3092 36.4678 54.2625C35.7892 54.8307 35.0467 55.2342 34.2401 55.4725C33.4335 55.7107 32.6543 55.83 31.9026 55.83C30.5276 55.83 29.3085 55.5917 28.2451 55.115C27.1085 54.6017 26.1551 53.6943 25.3851 52.3925L27.9701 50.275C28.4468 50.9168 28.9601 51.4025 29.5101 51.7325Z" fill="white"/>
<defs>
<filter id="filter0_f_258_937" x="-2" y="-2" width="84" height="84" filterUnits="userSpaceOnUse" color-interpolation-filters="sRGB">
<feFlood flood-opacity="0" result="BackgroundImageFix"/>
<feBlend mode="normal" in="SourceGraphic" in2="BackgroundImageFix" result="shape"/>
<feGaussianBlur stdDeviation="6" result="effect1_foregroundBlur_258_937"/>
</filter>
</defs>
</svg>
