<svg width="80" height="80" viewBox="0 0 80 80" fill="none" xmlns="http://www.w3.org/2000/svg">
<g filter="url(#filter0_f_474_157)">
<path d="M25.3333 18C21.2833 18 18 21.2833 18 25.3333V54.6667C18 58.7169 21.2833 62 25.3333 62H54.6667C58.7169 62 62 58.7169 62 54.6667V25.3333C62 21.2833 58.7169 18 54.6667 18H25.3333ZM43.2619 49.9122C45.0187 51.3283 46.7753 52.0274 48.5321 52.0096C49.6076 52.0096 50.4322 51.8123 51.0059 51.418C51.5615 51.0416 51.8394 50.5038 51.8394 49.8047C51.8394 49.0877 51.5615 48.4781 51.0059 47.9762C50.4322 47.4744 49.3478 46.9723 47.7523 46.4704C45.8342 45.9148 44.3553 45.1976 43.3156 44.3193C42.2939 43.441 41.7739 42.213 41.7561 40.6356C41.7561 39.1476 42.4014 37.9019 43.6921 36.898C44.9468 35.8941 46.5514 35.3922 48.5052 35.3922C51.23 35.3922 53.4168 36.0554 55.0661 37.382L53.1839 40.3129C52.5207 39.793 51.7588 39.4165 50.8983 39.1836C50.0379 38.9147 49.2671 38.7802 48.5859 38.7802C47.6538 38.7802 46.9097 38.9506 46.3541 39.2911C45.7985 39.6316 45.5205 40.0799 45.5205 40.6356C45.5205 41.245 45.861 41.7649 46.5423 42.1951C47.2236 42.6075 48.3886 43.0646 50.0379 43.5664C52.0276 44.158 53.4437 44.9468 54.2863 45.9327C55.1289 46.9185 55.5501 48.1735 55.5501 49.6971C55.5501 51.2567 54.9495 52.6011 53.7485 53.7304C52.5654 54.8419 50.8445 55.4244 48.5859 55.4782C45.6281 55.4782 43.1543 54.5909 41.1645 52.8162L43.2619 49.9122ZM29.7432 51.4718C30.3169 51.8304 31.007 52.0096 31.8137 52.0096C32.6562 52.0096 33.3553 51.7676 33.911 51.2836C34.4667 50.7817 34.7446 49.9122 34.7446 48.6753V35.7149H38.3747V49.3744C38.3209 51.4896 37.7113 53.0135 36.5462 53.9456C35.8828 54.5012 35.1568 54.8957 34.3681 55.1287C33.5794 55.3616 32.8175 55.4782 32.0826 55.4782C30.7381 55.4782 29.5461 55.2453 28.5063 54.7791C27.395 54.2773 26.4628 53.3899 25.7099 52.1171L28.2375 50.0467C28.7035 50.6742 29.2055 51.1491 29.7432 51.4718Z" fill="#D4D4D8" fill-opacity="0.42"/>
</g>
<g filter="url(#filter1_f_474_157)">
<path d="M25.3333 18C21.2833 18 18 21.2833 18 25.3333V54.6667C18 58.7169 21.2833 62 25.3333 62H54.6667C58.7169 62 62 58.7169 62 54.6667V25.3333C62 21.2833 58.7169 18 54.6667 18H25.3333ZM43.2619 49.9122C45.0187 51.3283 46.7753 52.0274 48.5321 52.0096C49.6076 52.0096 50.4322 51.8123 51.0059 51.418C51.5615 51.0416 51.8394 50.5038 51.8394 49.8047C51.8394 49.0877 51.5615 48.4781 51.0059 47.9762C50.4322 47.4744 49.3478 46.9723 47.7523 46.4704C45.8342 45.9148 44.3553 45.1976 43.3156 44.3193C42.2939 43.441 41.7739 42.213 41.7561 40.6356C41.7561 39.1476 42.4014 37.9019 43.6921 36.898C44.9468 35.8941 46.5514 35.3922 48.5052 35.3922C51.23 35.3922 53.4168 36.0554 55.0661 37.382L53.1839 40.3129C52.5207 39.793 51.7588 39.4165 50.8983 39.1836C50.0379 38.9147 49.2671 38.7802 48.5859 38.7802C47.6538 38.7802 46.9097 38.9506 46.3541 39.2911C45.7985 39.6316 45.5205 40.0799 45.5205 40.6356C45.5205 41.245 45.861 41.7649 46.5423 42.1951C47.2236 42.6075 48.3886 43.0646 50.0379 43.5664C52.0276 44.158 53.4437 44.9468 54.2863 45.9327C55.1289 46.9185 55.5501 48.1735 55.5501 49.6971C55.5501 51.2567 54.9495 52.6011 53.7485 53.7304C52.5654 54.8419 50.8445 55.4244 48.5859 55.4782C45.6281 55.4782 43.1543 54.5909 41.1645 52.8162L43.2619 49.9122ZM29.7432 51.4718C30.3169 51.8304 31.007 52.0096 31.8137 52.0096C32.6562 52.0096 33.3553 51.7676 33.911 51.2836C34.4667 50.7817 34.7446 49.9122 34.7446 48.6753V35.7149H38.3747V49.3744C38.3209 51.4896 37.7113 53.0135 36.5462 53.9456C35.8828 54.5012 35.1568 54.8957 34.3681 55.1287C33.5794 55.3616 32.8175 55.4782 32.0826 55.4782C30.7381 55.4782 29.5461 55.2453 28.5063 54.7791C27.395 54.2773 26.4628 53.3899 25.7099 52.1171L28.2375 50.0467C28.7035 50.6742 29.2055 51.1491 29.7432 51.4718Z" fill="#A1A1AA" fill-opacity="0.65"/>
</g>
<path d="M25.3333 18C21.2833 18 18 21.2833 18 25.3333V54.6667C18 58.7169 21.2833 62 25.3333 62H54.6667C58.7169 62 62 58.7169 62 54.6667V25.3333C62 21.2833 58.7169 18 54.6667 18H25.3333ZM43.2619 49.9122C45.0187 51.3283 46.7753 52.0274 48.5321 52.0096C49.6076 52.0096 50.4322 51.8123 51.0059 51.418C51.5615 51.0416 51.8394 50.5038 51.8394 49.8047C51.8394 49.0877 51.5615 48.4781 51.0059 47.9762C50.4322 47.4744 49.3478 46.9723 47.7523 46.4704C45.8342 45.9148 44.3553 45.1976 43.3156 44.3193C42.2939 43.441 41.7739 42.213 41.7561 40.6356C41.7561 39.1476 42.4014 37.9019 43.6921 36.898C44.9468 35.8941 46.5514 35.3922 48.5052 35.3922C51.23 35.3922 53.4168 36.0554 55.0661 37.382L53.1839 40.3129C52.5207 39.793 51.7588 39.4165 50.8983 39.1836C50.0379 38.9147 49.2671 38.7802 48.5859 38.7802C47.6538 38.7802 46.9097 38.9506 46.3541 39.2911C45.7985 39.6316 45.5205 40.0799 45.5205 40.6356C45.5205 41.245 45.861 41.7649 46.5423 42.1951C47.2236 42.6075 48.3886 43.0646 50.0379 43.5664C52.0276 44.158 53.4437 44.9468 54.2863 45.9327C55.1289 46.9185 55.5501 48.1735 55.5501 49.6971C55.5501 51.2567 54.9495 52.6011 53.7485 53.7304C52.5654 54.8419 50.8445 55.4244 48.5859 55.4782C45.6281 55.4782 43.1543 54.5909 41.1645 52.8162L43.2619 49.9122ZM29.7432 51.4718C30.3169 51.8304 31.007 52.0096 31.8137 52.0096C32.6562 52.0096 33.3553 51.7676 33.911 51.2836C34.4667 50.7817 34.7446 49.9122 34.7446 48.6753V35.7149H38.3747V49.3744C38.3209 51.4896 37.7113 53.0135 36.5462 53.9456C35.8828 54.5012 35.1568 54.8957 34.3681 55.1287C33.5794 55.3616 32.8175 55.4782 32.0826 55.4782C30.7381 55.4782 29.5461 55.2453 28.5063 54.7791C27.395 54.2773 26.4628 53.3899 25.7099 52.1171L28.2375 50.0467C28.7035 50.6742 29.2055 51.1491 29.7432 51.4718Z" fill="#F4F4F5"/>
<defs>
<filter id="filter0_f_474_157" x="10.5" y="10.5" width="59" height="59" filterUnits="userSpaceOnUse" color-interpolation-filters="sRGB">
<feFlood flood-opacity="0" result="BackgroundImageFix"/>
<feBlend mode="normal" in="SourceGraphic" in2="BackgroundImageFix" result="shape"/>
<feGaussianBlur stdDeviation="3.75" result="effect1_foregroundBlur_474_157"/>
</filter>
<filter id="filter1_f_474_157" x="3.8" y="3.8" width="72.4" height="72.4" filterUnits="userSpaceOnUse" color-interpolation-filters="sRGB">
<feFlood flood-opacity="0" result="BackgroundImageFix"/>
<feBlend mode="normal" in="SourceGraphic" in2="BackgroundImageFix" result="shape"/>
<feGaussianBlur stdDeviation="7.1" result="effect1_foregroundBlur_474_157"/>
</filter>
</defs>
</svg>
