<svg width="80" height="80" viewBox="0 0 80 80" fill="none" xmlns="http://www.w3.org/2000/svg">
<g filter="url(#filter0_f_258_951)">
<path d="M46.12 50.5985C44.7023 52.603 43.2333 54.4285 41.7538 56.0365C45.9345 60.0938 49.8228 61.9938 51.98 60.7483C54.1373 59.5028 54.436 55.1855 53.0128 49.5363C50.8803 50.0135 48.565 50.373 46.12 50.5985ZM42.845 50.8163C41.9103 50.855 40.9613 50.8748 40.0008 50.8748C39.0403 50.8748 38.0913 50.855 37.1568 50.8163C38.0985 52.047 39.052 53.1873 40.0008 54.2263C40.9495 53.1873 41.903 52.047 42.845 50.8163ZM55.4468 31.082C62.1085 32.993 66.4593 36.168 66.4593 39.9998C66.4593 43.8313 62.1085 47.0065 55.4468 48.9175C57.1228 55.6423 56.5483 60.9975 53.23 62.9133C49.9118 64.829 44.9868 62.6488 40.0008 57.835C35.015 62.6488 30.0899 64.829 26.7717 62.9133C23.4534 60.9975 22.879 55.6423 24.5549 48.9175C17.8931 47.0065 13.5425 43.8313 13.5425 39.9998C13.5425 36.168 17.8931 32.993 24.5549 31.082C22.879 24.3572 23.4534 19.0019 26.7717 17.0861C30.0899 15.1703 35.015 17.3505 40.0008 22.1642C44.9868 17.3505 49.9118 15.1703 53.23 17.0861C56.5483 19.0019 57.1228 24.3572 55.4468 31.082ZM53.0128 30.4632C54.436 24.814 54.1373 20.4966 51.98 19.2512C49.8228 18.0057 45.9345 19.9055 41.7538 23.9627C43.2333 25.5708 44.7023 27.3962 46.12 29.4008C48.565 29.6264 50.8803 29.9858 53.0128 30.4632ZM26.9889 49.5363C25.5656 55.1855 25.8644 59.5028 28.0217 60.7483C30.1789 61.9938 34.0672 60.0938 38.248 56.0365C36.7683 54.4285 35.2993 52.603 33.8816 50.5985C31.4367 50.373 29.1213 50.0135 26.9889 49.5363ZM37.1568 29.1831C38.0913 29.1444 39.0403 29.1247 40.0008 29.1247C40.9613 29.1247 41.9103 29.1444 42.845 29.1831C41.903 27.9524 40.9495 26.812 40.0008 25.7731C39.052 26.812 38.0985 27.9524 37.1568 29.1831ZM33.8816 29.4008C35.2993 27.3962 36.7683 25.5708 38.248 23.9627C34.0672 19.9055 30.1789 18.0057 28.0217 19.2512C25.8644 20.4966 25.5656 24.814 26.9889 30.4632C29.1213 29.9858 31.4367 29.6264 33.8816 29.4008ZM44.7348 48.1993C45.5988 46.932 46.443 45.5915 47.2538 44.1873C48.0645 42.7828 48.8033 41.3815 49.4688 39.9998C48.8033 38.6178 48.0645 37.2165 47.2538 35.8123C46.443 34.4078 45.5988 33.0674 44.7348 31.8001C43.2053 31.6855 41.6225 31.6247 40.0008 31.6247C38.3793 31.6247 36.7963 31.6855 35.2668 31.8001C34.4028 33.0674 33.5587 34.4078 32.7479 35.8123C31.937 37.2165 31.1983 38.6178 30.5328 39.9998C31.1983 41.3815 31.937 42.7828 32.7479 44.1873C33.5587 45.5915 34.4028 46.932 35.2668 48.1993C36.7963 48.3138 38.3793 48.3748 40.0008 48.3748C41.6225 48.3748 43.2053 48.3138 44.7348 48.1993ZM47.9463 47.871C49.483 47.6708 50.9473 47.4153 52.3215 47.113C51.896 45.7718 51.3853 44.376 50.7903 42.945C50.3565 43.7738 49.899 44.6053 49.4188 45.4373C48.9385 46.269 48.447 47.081 47.9463 47.871ZM32.0555 32.1283C30.5187 32.3287 29.0544 32.5842 27.6802 32.8864C28.1056 34.2275 28.6165 35.6235 29.2114 37.0545C29.6452 36.2258 30.1025 35.394 30.5828 34.5622C31.0631 33.7303 31.5546 32.9184 32.0555 32.1283ZM27.6802 47.113C29.0544 47.4153 30.5187 47.6708 32.0555 47.871C31.5546 47.081 31.0631 46.269 30.5828 45.4373C30.1025 44.6053 29.6452 43.7738 29.2114 42.945C28.6165 44.376 28.1056 45.7718 27.6802 47.113ZM25.236 46.5C25.8888 44.4148 26.7352 42.2298 27.7623 39.9998C26.7352 37.7695 25.8888 35.5848 25.236 33.4992C19.632 35.0913 16.0425 37.5088 16.0425 39.9998C16.0425 42.4905 19.632 44.908 25.236 46.5ZM52.3215 32.8864C50.9473 32.5842 49.483 32.3287 47.9463 32.1283C48.447 32.9184 48.9385 33.7303 49.4188 34.5622C49.899 35.394 50.3565 36.2258 50.7903 37.0545C51.3853 35.6235 51.896 34.2275 52.3215 32.8864ZM54.7658 33.4992C54.1128 35.5848 53.2665 37.7695 52.2393 39.9998C53.2665 42.2298 54.1128 44.4148 54.7658 46.5C60.3698 44.908 63.9593 42.4905 63.9593 39.9998C63.9593 37.5088 60.3698 35.0913 54.7658 33.4992ZM40.0008 44.6975C37.4063 44.6975 35.303 42.5943 35.303 39.9998C35.303 37.405 37.4063 35.3018 40.0008 35.3018C42.5955 35.3018 44.6988 37.405 44.6988 39.9998C44.6988 42.5943 42.5955 44.6975 40.0008 44.6975Z" fill="#A1A1AA" fill-opacity="0.7"/>
</g>
<path d="M46.12 50.5985C44.7023 52.603 43.2333 54.4285 41.7538 56.0365C45.9345 60.0938 49.8228 61.9938 51.98 60.7483C54.1373 59.5028 54.436 55.1855 53.0128 49.5363C50.8803 50.0135 48.565 50.373 46.12 50.5985ZM42.845 50.8163C41.9103 50.855 40.9613 50.8748 40.0008 50.8748C39.0403 50.8748 38.0913 50.855 37.1568 50.8163C38.0985 52.047 39.052 53.1873 40.0008 54.2263C40.9495 53.1873 41.903 52.047 42.845 50.8163ZM55.4468 31.082C62.1085 32.993 66.4593 36.168 66.4593 39.9998C66.4593 43.8313 62.1085 47.0065 55.4468 48.9175C57.1228 55.6423 56.5483 60.9975 53.23 62.9133C49.9118 64.829 44.9868 62.6488 40.0008 57.835C35.015 62.6488 30.0899 64.829 26.7717 62.9133C23.4534 60.9975 22.879 55.6423 24.5549 48.9175C17.8931 47.0065 13.5425 43.8313 13.5425 39.9998C13.5425 36.168 17.8931 32.993 24.5549 31.082C22.879 24.3572 23.4534 19.0019 26.7717 17.0861C30.0899 15.1703 35.015 17.3505 40.0008 22.1642C44.9868 17.3505 49.9118 15.1703 53.23 17.0861C56.5483 19.0019 57.1228 24.3572 55.4468 31.082ZM53.0128 30.4632C54.436 24.814 54.1373 20.4966 51.98 19.2512C49.8228 18.0057 45.9345 19.9055 41.7538 23.9627C43.2333 25.5708 44.7023 27.3962 46.12 29.4008C48.565 29.6264 50.8803 29.9858 53.0128 30.4632ZM26.9889 49.5363C25.5656 55.1855 25.8644 59.5028 28.0217 60.7483C30.1789 61.9938 34.0672 60.0938 38.248 56.0365C36.7683 54.4285 35.2993 52.603 33.8816 50.5985C31.4367 50.373 29.1213 50.0135 26.9889 49.5363ZM37.1568 29.1831C38.0913 29.1444 39.0403 29.1247 40.0008 29.1247C40.9613 29.1247 41.9103 29.1444 42.845 29.1831C41.903 27.9524 40.9495 26.812 40.0008 25.7731C39.052 26.812 38.0985 27.9524 37.1568 29.1831ZM33.8816 29.4008C35.2993 27.3962 36.7683 25.5708 38.248 23.9627C34.0672 19.9055 30.1789 18.0057 28.0217 19.2512C25.8644 20.4966 25.5656 24.814 26.9889 30.4632C29.1213 29.9858 31.4367 29.6264 33.8816 29.4008ZM44.7348 48.1993C45.5988 46.932 46.443 45.5915 47.2538 44.1873C48.0645 42.7828 48.8033 41.3815 49.4688 39.9998C48.8033 38.6178 48.0645 37.2165 47.2538 35.8123C46.443 34.4078 45.5988 33.0674 44.7348 31.8001C43.2053 31.6855 41.6225 31.6247 40.0008 31.6247C38.3793 31.6247 36.7963 31.6855 35.2668 31.8001C34.4028 33.0674 33.5587 34.4078 32.7479 35.8123C31.937 37.2165 31.1983 38.6178 30.5328 39.9998C31.1983 41.3815 31.937 42.7828 32.7479 44.1873C33.5587 45.5915 34.4028 46.932 35.2668 48.1993C36.7963 48.3138 38.3793 48.3748 40.0008 48.3748C41.6225 48.3748 43.2053 48.3138 44.7348 48.1993ZM47.9463 47.871C49.483 47.6708 50.9473 47.4153 52.3215 47.113C51.896 45.7718 51.3853 44.376 50.7903 42.945C50.3565 43.7738 49.899 44.6053 49.4188 45.4373C48.9385 46.269 48.447 47.081 47.9463 47.871ZM32.0555 32.1283C30.5187 32.3287 29.0544 32.5842 27.6802 32.8864C28.1056 34.2275 28.6165 35.6235 29.2114 37.0545C29.6452 36.2258 30.1025 35.394 30.5828 34.5622C31.0631 33.7303 31.5546 32.9184 32.0555 32.1283ZM27.6802 47.113C29.0544 47.4153 30.5187 47.6708 32.0555 47.871C31.5546 47.081 31.0631 46.269 30.5828 45.4373C30.1025 44.6053 29.6452 43.7738 29.2114 42.945C28.6165 44.376 28.1056 45.7718 27.6802 47.113ZM25.236 46.5C25.8888 44.4148 26.7352 42.2298 27.7623 39.9998C26.7352 37.7695 25.8888 35.5848 25.236 33.4992C19.632 35.0913 16.0425 37.5088 16.0425 39.9998C16.0425 42.4905 19.632 44.908 25.236 46.5ZM52.3215 32.8864C50.9473 32.5842 49.483 32.3287 47.9463 32.1283C48.447 32.9184 48.9385 33.7303 49.4188 34.5622C49.899 35.394 50.3565 36.2258 50.7903 37.0545C51.3853 35.6235 51.896 34.2275 52.3215 32.8864ZM54.7658 33.4992C54.1128 35.5848 53.2665 37.7695 52.2393 39.9998C53.2665 42.2298 54.1128 44.4148 54.7658 46.5C60.3698 44.908 63.9593 42.4905 63.9593 39.9998C63.9593 37.5088 60.3698 35.0913 54.7658 33.4992ZM40.0008 44.6975C37.4063 44.6975 35.303 42.5943 35.303 39.9998C35.303 37.405 37.4063 35.3018 40.0008 35.3018C42.5955 35.3018 44.6988 37.405 44.6988 39.9998C44.6988 42.5943 42.5955 44.6975 40.0008 44.6975Z" fill="white"/>
<defs>
<filter id="filter0_f_258_951" x="-2" y="-2" width="84" height="84" filterUnits="userSpaceOnUse" color-interpolation-filters="sRGB">
<feFlood flood-opacity="0" result="BackgroundImageFix"/>
<feBlend mode="normal" in="SourceGraphic" in2="BackgroundImageFix" result="shape"/>
<feGaussianBlur stdDeviation="6" result="effect1_foregroundBlur_258_951"/>
</filter>
</defs>
</svg>
