<svg width="84" height="80" viewBox="0 0 84 80" fill="none" xmlns="http://www.w3.org/2000/svg">
<g filter="url(#filter0_f_258_930)">
<path d="M41.999 22.1499C34.0657 22.1499 29.1074 26.1166 27.124 34.0499C30.099 30.0832 33.5698 28.5957 37.5365 29.5874C39.8 30.1527 41.4165 31.7939 43.2087 33.6136C46.1267 36.5737 49.501 39.9999 56.874 39.9999C64.8073 39.9999 69.7657 36.0332 71.749 28.0999C68.774 32.0666 65.3032 33.5541 61.3365 32.5624C59.073 31.9972 57.4567 30.3559 55.6642 28.5362C52.7487 25.5761 49.3745 22.1499 41.999 22.1499ZM27.124 39.9999C19.1907 39.9999 14.2324 43.9667 12.249 51.8999C15.224 47.9332 18.6948 46.4457 22.6615 47.4374C24.925 48.0027 26.5414 49.6439 28.3338 51.4637C31.2518 54.4237 34.626 57.8499 41.999 57.8499C49.9323 57.8499 54.8908 53.8832 56.874 45.9499C53.899 49.9167 50.4282 51.4042 46.4615 50.4124C44.198 49.8472 42.5815 48.2059 40.7893 46.3862C37.8738 43.4262 34.4995 39.9999 27.124 39.9999Z" fill="#998EAD" fill-opacity="0.6"/>
</g>
<path d="M41.999 22.1499C34.0657 22.1499 29.1074 26.1166 27.124 34.0499C30.099 30.0832 33.5698 28.5957 37.5365 29.5874C39.8 30.1527 41.4165 31.7939 43.2087 33.6136C46.1267 36.5737 49.501 39.9999 56.874 39.9999C64.8073 39.9999 69.7657 36.0332 71.749 28.0999C68.774 32.0666 65.3032 33.5541 61.3365 32.5624C59.073 31.9972 57.4567 30.3559 55.6642 28.5362C52.7487 25.5761 49.3745 22.1499 41.999 22.1499ZM27.124 39.9999C19.1907 39.9999 14.2324 43.9667 12.249 51.8999C15.224 47.9332 18.6948 46.4457 22.6615 47.4374C24.925 48.0027 26.5414 49.6439 28.3338 51.4637C31.2518 54.4237 34.626 57.8499 41.999 57.8499C49.9323 57.8499 54.8908 53.8832 56.874 45.9499C53.899 49.9167 50.4282 51.4042 46.4615 50.4124C44.198 49.8472 42.5815 48.2059 40.7893 46.3862C37.8738 43.4262 34.4995 39.9999 27.124 39.9999Z" fill="#F4F4F5"/>
<defs>
<filter id="filter0_f_258_930" x="0" y="-2" width="84" height="84" filterUnits="userSpaceOnUse" color-interpolation-filters="sRGB">
<feFlood flood-opacity="0" result="BackgroundImageFix"/>
<feBlend mode="normal" in="SourceGraphic" in2="BackgroundImageFix" result="shape"/>
<feGaussianBlur stdDeviation="6" result="effect1_foregroundBlur_258_930"/>
</filter>
</defs>
</svg>
