<svg width="80" height="80" viewBox="0 0 80 80" fill="none" xmlns="http://www.w3.org/2000/svg">
<g filter="url(#filter0_f_258_944)">
<path d="M58.1 17.5H21.9C20.733 17.5 19.6139 17.9636 18.7887 18.7887C17.9636 19.6139 17.5 20.733 17.5 21.9V58.1C17.5 59.267 17.9636 60.3861 18.7887 61.2113C19.6139 62.0364 20.733 62.5 21.9 62.5H58.1C58.6778 62.5 59.25 62.3862 59.7838 62.1651C60.3176 61.944 60.8027 61.6199 61.2113 61.2113C61.6199 60.8027 61.944 60.3176 62.1651 59.7838C62.3862 59.25 62.5 58.6778 62.5 58.1V21.9C62.5 21.3222 62.3862 20.75 62.1651 20.2162C61.944 19.6824 61.6199 19.1973 61.2113 18.7887C60.8027 18.3802 60.3176 18.0561 59.7838 17.8349C59.25 17.6138 58.6778 17.5 58.1 17.5ZM43.6 42.5H37.975V58.6H33.5V42.5H27.875V38.85H43.6V42.5ZM58.1 55.7C57.7381 56.4695 57.1549 57.1137 56.425 57.55C55.6571 58.0226 54.8102 58.3529 53.925 58.525C52.9381 58.7288 51.9327 58.8293 50.925 58.825C49.8939 58.8241 48.8649 58.7321 47.85 58.55C46.9874 58.3733 46.1483 58.0965 45.35 57.725V53.45L45.2 53.3H45.35V53.475C46.102 54.0617 46.947 54.518 47.85 54.825C48.7517 55.1683 49.7102 55.338 50.675 55.325C51.1791 55.3338 51.6826 55.2835 52.175 55.175C52.5449 55.0884 52.8991 54.9451 53.225 54.75C53.4802 54.5944 53.6945 54.3802 53.85 54.125C54.0039 53.8344 54.0716 53.5059 54.045 53.1781C54.0184 52.8503 53.8987 52.537 53.7 52.275C53.465 51.9455 53.1677 51.6652 52.825 51.45C52.4088 51.1574 51.9651 50.9062 51.5 50.7L49.825 50C48.4991 49.4539 47.3243 48.5964 46.4 47.5C45.6265 46.5676 45.2179 45.3861 45.25 44.175C45.2209 43.255 45.4274 42.3428 45.85 41.525C46.2533 40.8122 46.8185 40.2042 47.5 39.75C48.2593 39.2448 49.1077 38.8885 50 38.7C50.9755 38.4755 51.974 38.3664 52.975 38.375C53.8865 38.3623 54.7976 38.4208 55.7 38.55C56.4508 38.6674 57.1878 38.86 57.9 39.125V43.25C57.5709 43.0154 57.2192 42.8144 56.85 42.65C56.4525 42.4789 56.0431 42.3369 55.625 42.225C55.2243 42.1077 54.8146 42.0241 54.4 41.975C54.0175 41.9389 53.6325 41.9389 53.25 41.975C52.7789 41.9672 52.3087 42.0176 51.85 42.125C51.4737 42.2039 51.1113 42.3387 50.775 42.525C50.5125 42.6797 50.2899 42.8937 50.125 43.15C49.9753 43.399 49.8975 43.6845 49.9 43.975C49.8939 44.2851 49.981 44.5899 50.15 44.85C50.3554 45.134 50.6093 45.3794 50.9 45.575C51.2525 45.8556 51.6388 46.0908 52.05 46.275L53.625 46.975C54.3492 47.2744 55.051 47.6253 55.725 48.025C56.3177 48.3494 56.8573 48.7625 57.325 49.25C57.7833 49.6941 58.1413 50.2311 58.375 50.825C58.6147 51.5075 58.7332 52.2267 58.725 52.95C58.7071 53.8837 58.4942 54.8034 58.1 55.65V55.7Z" fill="#A1A1AA" fill-opacity="0.7"/>
</g>
<path d="M58.1 17.5H21.9C20.733 17.5 19.6139 17.9636 18.7887 18.7887C17.9636 19.6139 17.5 20.733 17.5 21.9V58.1C17.5 59.267 17.9636 60.3861 18.7887 61.2113C19.6139 62.0364 20.733 62.5 21.9 62.5H58.1C58.6778 62.5 59.25 62.3862 59.7838 62.1651C60.3176 61.944 60.8027 61.6199 61.2113 61.2113C61.6199 60.8027 61.944 60.3176 62.1651 59.7838C62.3862 59.25 62.5 58.6778 62.5 58.1V21.9C62.5 21.3222 62.3862 20.75 62.1651 20.2162C61.944 19.6824 61.6199 19.1973 61.2113 18.7887C60.8027 18.3802 60.3176 18.0561 59.7838 17.8349C59.25 17.6138 58.6778 17.5 58.1 17.5ZM43.6 42.5H37.975V58.6H33.5V42.5H27.875V38.85H43.6V42.5ZM58.1 55.7C57.7381 56.4695 57.1549 57.1137 56.425 57.55C55.6571 58.0226 54.8102 58.3529 53.925 58.525C52.9381 58.7288 51.9327 58.8293 50.925 58.825C49.8939 58.8241 48.8649 58.7321 47.85 58.55C46.9874 58.3733 46.1483 58.0965 45.35 57.725V53.45L45.2 53.3H45.35V53.475C46.102 54.0617 46.947 54.518 47.85 54.825C48.7517 55.1683 49.7102 55.338 50.675 55.325C51.1791 55.3338 51.6826 55.2835 52.175 55.175C52.5449 55.0884 52.8991 54.9451 53.225 54.75C53.4802 54.5944 53.6945 54.3802 53.85 54.125C54.0039 53.8344 54.0716 53.5059 54.045 53.1781C54.0184 52.8503 53.8987 52.537 53.7 52.275C53.465 51.9455 53.1677 51.6652 52.825 51.45C52.4088 51.1574 51.9651 50.9062 51.5 50.7L49.825 50C48.4991 49.4539 47.3243 48.5964 46.4 47.5C45.6265 46.5676 45.2179 45.3861 45.25 44.175C45.2209 43.255 45.4274 42.3428 45.85 41.525C46.2533 40.8122 46.8185 40.2042 47.5 39.75C48.2593 39.2448 49.1077 38.8885 50 38.7C50.9755 38.4755 51.974 38.3664 52.975 38.375C53.8865 38.3623 54.7976 38.4208 55.7 38.55C56.4508 38.6674 57.1878 38.86 57.9 39.125V43.25C57.5709 43.0154 57.2192 42.8144 56.85 42.65C56.4525 42.4789 56.0431 42.3369 55.625 42.225C55.2243 42.1077 54.8146 42.0241 54.4 41.975C54.0175 41.9389 53.6325 41.9389 53.25 41.975C52.7789 41.9672 52.3087 42.0176 51.85 42.125C51.4737 42.2039 51.1113 42.3387 50.775 42.525C50.5125 42.6797 50.2899 42.8937 50.125 43.15C49.9753 43.399 49.8975 43.6845 49.9 43.975C49.8939 44.2851 49.981 44.5899 50.15 44.85C50.3554 45.134 50.6093 45.3794 50.9 45.575C51.2525 45.8556 51.6388 46.0908 52.05 46.275L53.625 46.975C54.3492 47.2744 55.051 47.6253 55.725 48.025C56.3177 48.3494 56.8573 48.7625 57.325 49.25C57.7833 49.6941 58.1413 50.2311 58.375 50.825C58.6147 51.5075 58.7332 52.2267 58.725 52.95C58.7071 53.8837 58.4942 54.8034 58.1 55.65V55.7Z" fill="white"/>
<defs>
<filter id="filter0_f_258_944" x="-2" y="-2" width="84" height="84" filterUnits="userSpaceOnUse" color-interpolation-filters="sRGB">
<feFlood flood-opacity="0" result="BackgroundImageFix"/>
<feBlend mode="normal" in="SourceGraphic" in2="BackgroundImageFix" result="shape"/>
<feGaussianBlur stdDeviation="6" result="effect1_foregroundBlur_258_944"/>
</filter>
</defs>
</svg>
