<svg width="80" height="80" viewBox="0 0 80 80" fill="none" xmlns="http://www.w3.org/2000/svg">
<g filter="url(#filter0_f_474_164)">
<path d="M57.6978 18H22.3022C21.1612 18 20.0669 18.4533 19.2601 19.2601C18.4533 20.0669 18 21.1612 18 22.3022V57.6978C18 58.8388 18.4533 59.9331 19.2601 60.7399C20.0669 61.5467 21.1612 62 22.3022 62H57.6978C58.2628 62 58.8222 61.8887 59.3442 61.6725C59.8661 61.4563 60.3404 61.1394 60.7399 60.7399C61.1394 60.3404 61.4563 59.8661 61.6725 59.3442C61.8887 58.8222 62 58.2628 62 57.6978V22.3022C62 21.7372 61.8887 21.1778 61.6725 20.6558C61.4563 20.1339 61.1394 19.6596 60.7399 19.2601C60.3404 18.8606 59.8661 18.5437 59.3442 18.3275C58.8222 18.1113 58.2628 18 57.6978 18ZM43.52 42.4444H38.02V58.1867H33.6444V42.4444H28.1444V38.8756H43.52V42.4444ZM57.6978 55.3511C57.3439 56.1035 56.7737 56.7334 56.06 57.16C55.3091 57.6221 54.4811 57.9451 53.6156 58.1133C52.6506 58.3126 51.6675 58.4109 50.6822 58.4067C49.674 58.4058 48.6679 58.3158 47.6756 58.1378C46.8321 57.965 46.0117 57.6943 45.2311 57.3311V53.1511L45.0844 53.0044H45.2311V53.1756C45.9664 53.7492 46.7926 54.1954 47.6756 54.4956C48.5572 54.8313 49.4944 54.9971 50.4378 54.9844C50.9307 54.993 51.423 54.9438 51.9044 54.8378C52.2661 54.7531 52.6124 54.613 52.9311 54.4222C53.1806 54.2701 53.3901 54.0606 53.5422 53.8111C53.6927 53.527 53.7589 53.2057 53.7329 52.8853C53.7069 52.5648 53.5899 52.2584 53.3956 52.0022C53.1658 51.6801 52.8751 51.406 52.54 51.1956C52.1331 50.9094 51.6992 50.6638 51.2444 50.4622L49.6067 49.7778C48.3102 49.2438 47.1615 48.4053 46.2578 47.3333C45.5015 46.4216 45.1019 45.2664 45.1333 44.0822C45.1049 43.1826 45.3068 42.2907 45.72 41.4911C46.1143 40.7941 46.667 40.1996 47.3333 39.7556C48.0758 39.2616 48.9053 38.9132 49.7778 38.7289C50.7316 38.5094 51.7079 38.4027 52.6867 38.4111C53.5779 38.3987 54.4688 38.4559 55.3511 38.5822C56.0852 38.697 56.8059 38.8853 57.5022 39.1444V43.1778C57.1805 42.9484 56.8365 42.7519 56.4756 42.5911C56.0869 42.4238 55.6866 42.2849 55.2778 42.1756C54.886 42.0609 54.4854 41.9791 54.08 41.9311C53.706 41.8958 53.3295 41.8958 52.9556 41.9311C52.495 41.9235 52.0352 41.9728 51.5867 42.0778C51.2187 42.1549 50.8644 42.2868 50.5356 42.4689C50.2789 42.6201 50.0612 42.8294 49.9 43.08C49.7537 43.3235 49.6775 43.6026 49.68 43.8867C49.674 44.1899 49.7592 44.4879 49.9244 44.7422C50.1252 45.0199 50.3735 45.2598 50.6578 45.4511C51.0024 45.7255 51.3802 45.9554 51.7822 46.1356L53.3222 46.82C54.0303 47.1127 54.7165 47.4558 55.3756 47.8467C55.9551 48.1638 56.4826 48.5677 56.94 49.0444C57.3881 49.4787 57.7382 50.0038 57.9667 50.5844C58.2011 51.2518 58.3169 51.955 58.3089 52.6622C58.2914 53.5752 58.0832 54.4744 57.6978 55.3022V55.3511Z" fill="#D4D4D8" fill-opacity="0.42"/>
</g>
<g filter="url(#filter1_f_474_164)">
<path d="M57.6978 18H22.3022C21.1612 18 20.0669 18.4533 19.2601 19.2601C18.4533 20.0669 18 21.1612 18 22.3022V57.6978C18 58.8388 18.4533 59.9331 19.2601 60.7399C20.0669 61.5467 21.1612 62 22.3022 62H57.6978C58.2628 62 58.8222 61.8887 59.3442 61.6725C59.8661 61.4563 60.3404 61.1394 60.7399 60.7399C61.1394 60.3404 61.4563 59.8661 61.6725 59.3442C61.8887 58.8222 62 58.2628 62 57.6978V22.3022C62 21.7372 61.8887 21.1778 61.6725 20.6558C61.4563 20.1339 61.1394 19.6596 60.7399 19.2601C60.3404 18.8606 59.8661 18.5437 59.3442 18.3275C58.8222 18.1113 58.2628 18 57.6978 18ZM43.52 42.4444H38.02V58.1867H33.6444V42.4444H28.1444V38.8756H43.52V42.4444ZM57.6978 55.3511C57.3439 56.1035 56.7737 56.7334 56.06 57.16C55.3091 57.6221 54.4811 57.9451 53.6156 58.1133C52.6506 58.3126 51.6675 58.4109 50.6822 58.4067C49.674 58.4058 48.6679 58.3158 47.6756 58.1378C46.8321 57.965 46.0117 57.6943 45.2311 57.3311V53.1511L45.0844 53.0044H45.2311V53.1756C45.9664 53.7492 46.7926 54.1954 47.6756 54.4956C48.5572 54.8313 49.4944 54.9971 50.4378 54.9844C50.9307 54.993 51.423 54.9438 51.9044 54.8378C52.2661 54.7531 52.6124 54.613 52.9311 54.4222C53.1806 54.2701 53.3901 54.0606 53.5422 53.8111C53.6927 53.527 53.7589 53.2057 53.7329 52.8853C53.7069 52.5648 53.5899 52.2584 53.3956 52.0022C53.1658 51.6801 52.8751 51.406 52.54 51.1956C52.1331 50.9094 51.6992 50.6638 51.2444 50.4622L49.6067 49.7778C48.3102 49.2438 47.1615 48.4053 46.2578 47.3333C45.5015 46.4216 45.1019 45.2664 45.1333 44.0822C45.1049 43.1826 45.3068 42.2907 45.72 41.4911C46.1143 40.7941 46.667 40.1996 47.3333 39.7556C48.0758 39.2616 48.9053 38.9132 49.7778 38.7289C50.7316 38.5094 51.7079 38.4027 52.6867 38.4111C53.5779 38.3987 54.4688 38.4559 55.3511 38.5822C56.0852 38.697 56.8059 38.8853 57.5022 39.1444V43.1778C57.1805 42.9484 56.8365 42.7519 56.4756 42.5911C56.0869 42.4238 55.6866 42.2849 55.2778 42.1756C54.886 42.0609 54.4854 41.9791 54.08 41.9311C53.706 41.8958 53.3295 41.8958 52.9556 41.9311C52.495 41.9235 52.0352 41.9728 51.5867 42.0778C51.2187 42.1549 50.8644 42.2868 50.5356 42.4689C50.2789 42.6201 50.0612 42.8294 49.9 43.08C49.7537 43.3235 49.6775 43.6026 49.68 43.8867C49.674 44.1899 49.7592 44.4879 49.9244 44.7422C50.1252 45.0199 50.3735 45.2598 50.6578 45.4511C51.0024 45.7255 51.3802 45.9554 51.7822 46.1356L53.3222 46.82C54.0303 47.1127 54.7165 47.4558 55.3756 47.8467C55.9551 48.1638 56.4826 48.5677 56.94 49.0444C57.3881 49.4787 57.7382 50.0038 57.9667 50.5844C58.2011 51.2518 58.3169 51.955 58.3089 52.6622C58.2914 53.5752 58.0832 54.4744 57.6978 55.3022V55.3511Z" fill="#A1A1AA" fill-opacity="0.65"/>
</g>
<path d="M57.6978 18H22.3022C21.1612 18 20.0669 18.4533 19.2601 19.2601C18.4533 20.0669 18 21.1612 18 22.3022V57.6978C18 58.8388 18.4533 59.9331 19.2601 60.7399C20.0669 61.5467 21.1612 62 22.3022 62H57.6978C58.2628 62 58.8222 61.8887 59.3442 61.6725C59.8661 61.4563 60.3404 61.1394 60.7399 60.7399C61.1394 60.3404 61.4563 59.8661 61.6725 59.3442C61.8887 58.8222 62 58.2628 62 57.6978V22.3022C62 21.7372 61.8887 21.1778 61.6725 20.6558C61.4563 20.1339 61.1394 19.6596 60.7399 19.2601C60.3404 18.8606 59.8661 18.5437 59.3442 18.3275C58.8222 18.1113 58.2628 18 57.6978 18ZM43.52 42.4444H38.02V58.1867H33.6444V42.4444H28.1444V38.8756H43.52V42.4444ZM57.6978 55.3511C57.3439 56.1035 56.7737 56.7334 56.06 57.16C55.3091 57.6221 54.4811 57.9451 53.6156 58.1133C52.6506 58.3126 51.6675 58.4109 50.6822 58.4067C49.674 58.4058 48.6679 58.3158 47.6756 58.1378C46.8321 57.965 46.0117 57.6943 45.2311 57.3311V53.1511L45.0844 53.0044H45.2311V53.1756C45.9664 53.7492 46.7926 54.1954 47.6756 54.4956C48.5572 54.8313 49.4944 54.9971 50.4378 54.9844C50.9307 54.993 51.423 54.9438 51.9044 54.8378C52.2661 54.7531 52.6124 54.613 52.9311 54.4222C53.1806 54.2701 53.3901 54.0606 53.5422 53.8111C53.6927 53.527 53.7589 53.2057 53.7329 52.8853C53.7069 52.5648 53.5899 52.2584 53.3956 52.0022C53.1658 51.6801 52.8751 51.406 52.54 51.1956C52.1331 50.9094 51.6992 50.6638 51.2444 50.4622L49.6067 49.7778C48.3102 49.2438 47.1615 48.4053 46.2578 47.3333C45.5015 46.4216 45.1019 45.2664 45.1333 44.0822C45.1049 43.1826 45.3068 42.2907 45.72 41.4911C46.1143 40.7941 46.667 40.1996 47.3333 39.7556C48.0758 39.2616 48.9053 38.9132 49.7778 38.7289C50.7316 38.5094 51.7079 38.4027 52.6867 38.4111C53.5779 38.3987 54.4688 38.4559 55.3511 38.5822C56.0852 38.697 56.8059 38.8853 57.5022 39.1444V43.1778C57.1805 42.9484 56.8365 42.7519 56.4756 42.5911C56.0869 42.4238 55.6866 42.2849 55.2778 42.1756C54.886 42.0609 54.4854 41.9791 54.08 41.9311C53.706 41.8958 53.3295 41.8958 52.9556 41.9311C52.495 41.9235 52.0352 41.9728 51.5867 42.0778C51.2187 42.1549 50.8644 42.2868 50.5356 42.4689C50.2789 42.6201 50.0612 42.8294 49.9 43.08C49.7537 43.3235 49.6775 43.6026 49.68 43.8867C49.674 44.1899 49.7592 44.4879 49.9244 44.7422C50.1252 45.0199 50.3735 45.2598 50.6578 45.4511C51.0024 45.7255 51.3802 45.9554 51.7822 46.1356L53.3222 46.82C54.0303 47.1127 54.7165 47.4558 55.3756 47.8467C55.9551 48.1638 56.4826 48.5677 56.94 49.0444C57.3881 49.4787 57.7382 50.0038 57.9667 50.5844C58.2011 51.2518 58.3169 51.955 58.3089 52.6622C58.2914 53.5752 58.0832 54.4744 57.6978 55.3022V55.3511Z" fill="#F4F4F5"/>
<defs>
<filter id="filter0_f_474_164" x="10.5" y="10.5" width="59" height="59" filterUnits="userSpaceOnUse" color-interpolation-filters="sRGB">
<feFlood flood-opacity="0" result="BackgroundImageFix"/>
<feBlend mode="normal" in="SourceGraphic" in2="BackgroundImageFix" result="shape"/>
<feGaussianBlur stdDeviation="3.75" result="effect1_foregroundBlur_474_164"/>
</filter>
<filter id="filter1_f_474_164" x="3.8" y="3.8" width="72.4" height="72.4" filterUnits="userSpaceOnUse" color-interpolation-filters="sRGB">
<feFlood flood-opacity="0" result="BackgroundImageFix"/>
<feBlend mode="normal" in="SourceGraphic" in2="BackgroundImageFix" result="shape"/>
<feGaussianBlur stdDeviation="7.1" result="effect1_foregroundBlur_474_164"/>
</filter>
</defs>
</svg>
