<svg width="94" height="94" viewBox="0 0 94 94" fill="none" xmlns="http://www.w3.org/2000/svg">
<g filter="url(#filter0_f_262_1895)">
<path d="M36.1675 42.8527L37.6608 17.6031C37.6727 17.4055 37.7499 17.2175 37.8803 17.0686C38.0108 16.9197 38.187 16.8184 38.3813 16.7806L62.6829 12.0177C62.833 11.9882 62.9882 11.9978 63.1335 12.0456C63.2788 12.0933 63.4094 12.1776 63.5127 12.2903C63.6161 12.4031 63.6888 12.5405 63.7238 12.6894C63.7587 12.8383 63.7549 12.9936 63.7125 13.1406L59.1683 28.8994C59.1262 29.0461 59.1223 29.2011 59.1572 29.3497C59.192 29.4983 59.2644 29.6355 59.3674 29.7481C59.4704 29.8608 59.6006 29.9451 59.7455 29.9931C59.8904 30.0411 60.0451 30.0512 60.195 30.0223L67.16 28.6806C67.3239 28.6486 67.4935 28.6631 67.6495 28.7227C67.8055 28.7822 67.9417 28.8843 68.0426 29.0174C68.1434 29.1505 68.2049 29.3092 68.2201 29.4755C68.2353 29.6418 68.2035 29.809 68.1283 29.9581L48.3242 69.479L47.9654 70.0331C47.8883 70.1586 47.7801 70.262 47.6514 70.3336C47.5227 70.4051 47.3777 70.4422 47.2304 70.4415C46.7142 70.4415 46.2096 69.9981 46.3408 69.3652L49.5346 53.904C49.5659 53.7525 49.5574 53.5955 49.5098 53.4484C49.4622 53.3012 49.3772 53.1689 49.2631 53.0646C49.149 52.9602 49.0097 52.8872 48.8589 52.8528C48.7081 52.8185 48.551 52.8239 48.4029 52.8685L44.2233 54.1373C44.0754 54.1824 43.9182 54.1882 43.7673 54.1543C43.6164 54.1203 43.4769 54.0478 43.3625 53.9436C43.2481 53.8395 43.1627 53.7075 43.1147 53.5604C43.0667 53.4133 43.0578 53.2563 43.0888 53.1048L45.1013 43.261C45.1318 43.1141 45.1247 42.9618 45.0808 42.8182C45.0368 42.6747 44.9574 42.5446 44.8498 42.4399C44.7422 42.3352 44.6099 42.2594 44.4653 42.2194C44.3206 42.1794 44.1682 42.1765 44.0221 42.211L37.2554 43.7744C37.1204 43.8054 36.98 43.8046 36.8453 43.7719C36.7106 43.7393 36.5854 43.6757 36.4796 43.5863C36.3737 43.4968 36.2902 43.384 36.2355 43.2567C36.1808 43.1293 36.1565 42.991 36.1646 42.8527H36.1675ZM79.8475 19.7352L62.4117 22.9085L60.825 28.4123L66.8829 27.2456C67.3524 27.152 67.8393 27.2051 68.2775 27.3976C68.7158 27.5902 69.0843 27.9128 69.3329 28.3219C69.544 28.6621 69.664 29.0508 69.6813 29.4508C69.6987 29.8507 69.6129 30.2484 69.4321 30.6056L49.625 70.1294L49.5871 70.2023L49.5433 70.2694L49.1875 70.8235C48.9772 71.153 48.6875 71.4245 48.3451 71.613C48.0027 71.8016 47.6184 71.9012 47.2275 71.9027C46.8735 71.9008 46.5243 71.8208 46.2047 71.6686C45.885 71.5163 45.6029 71.2955 45.3783 71.0219C45.1599 70.7515 45.0046 70.4357 44.9239 70.0976C44.8432 69.7595 44.839 69.4076 44.9117 69.0677L47.9129 54.5398L44.6463 55.5315C44.1994 55.6661 43.7227 55.6653 43.2763 55.5293C42.8299 55.3933 42.4338 55.1282 42.1379 54.7673C41.9173 54.4979 41.7596 54.1827 41.6764 53.8446C41.5931 53.5065 41.5864 53.1541 41.6567 52.8131L43.4942 43.8298L37.5821 45.1948C37.1819 45.2865 36.7646 45.272 36.3717 45.1528C35.9788 45.0336 35.6239 44.8138 35.3421 44.5152C35.1236 44.2816 34.9549 44.006 34.8461 43.7051C34.7373 43.4043 34.6907 43.0846 34.7092 42.7652L35.8438 23.6027L14.1438 19.7235C13.8094 19.6632 13.4648 19.6995 13.1504 19.8283C12.836 19.957 12.5648 20.1728 12.3688 20.4503C12.1728 20.7278 12.06 21.0554 12.0438 21.3948C12.0275 21.7341 12.1085 22.0711 12.2771 22.366L45.775 81.099C45.9315 81.3739 46.1582 81.6022 46.432 81.7607C46.7057 81.9192 47.0167 82.0021 47.333 82.0009C47.6493 81.9997 47.9596 81.9145 48.2322 81.754C48.5048 81.5934 48.7298 81.3634 48.8842 81.0873L81.7258 22.3602C81.8905 22.0647 81.9677 21.7286 81.9487 21.3909C81.9296 21.0531 81.815 20.7278 81.6181 20.4527C81.4213 20.1777 81.1504 19.9642 80.8369 19.8371C80.5234 19.7101 80.1803 19.6748 79.8475 19.7352Z" fill="#A1A1AA" fill-opacity="0.7"/>
</g>
<path d="M36.1675 42.8527L37.6608 17.6031C37.6727 17.4055 37.7499 17.2175 37.8803 17.0686C38.0108 16.9197 38.187 16.8184 38.3813 16.7806L62.6829 12.0177C62.833 11.9882 62.9882 11.9978 63.1335 12.0456C63.2788 12.0933 63.4094 12.1776 63.5127 12.2903C63.6161 12.4031 63.6888 12.5405 63.7238 12.6894C63.7587 12.8383 63.7549 12.9936 63.7125 13.1406L59.1683 28.8994C59.1262 29.0461 59.1223 29.2011 59.1572 29.3497C59.192 29.4983 59.2644 29.6355 59.3674 29.7481C59.4704 29.8608 59.6006 29.9451 59.7455 29.9931C59.8904 30.0411 60.0451 30.0512 60.195 30.0223L67.16 28.6806C67.3239 28.6486 67.4935 28.6631 67.6495 28.7227C67.8055 28.7822 67.9417 28.8843 68.0426 29.0174C68.1434 29.1505 68.2049 29.3092 68.2201 29.4755C68.2353 29.6418 68.2035 29.809 68.1283 29.9581L48.3242 69.479L47.9654 70.0331C47.8883 70.1586 47.7801 70.262 47.6514 70.3336C47.5227 70.4051 47.3777 70.4422 47.2304 70.4415C46.7142 70.4415 46.2096 69.9981 46.3408 69.3652L49.5346 53.904C49.5659 53.7525 49.5574 53.5955 49.5098 53.4484C49.4622 53.3012 49.3772 53.1689 49.2631 53.0646C49.149 52.9602 49.0097 52.8872 48.8589 52.8528C48.7081 52.8185 48.551 52.8239 48.4029 52.8685L44.2233 54.1373C44.0754 54.1824 43.9182 54.1882 43.7673 54.1543C43.6164 54.1203 43.4769 54.0478 43.3625 53.9436C43.2481 53.8395 43.1627 53.7075 43.1147 53.5604C43.0667 53.4133 43.0578 53.2563 43.0888 53.1048L45.1013 43.261C45.1318 43.1141 45.1247 42.9618 45.0808 42.8182C45.0368 42.6747 44.9574 42.5446 44.8498 42.4399C44.7422 42.3352 44.6099 42.2594 44.4653 42.2194C44.3206 42.1794 44.1682 42.1765 44.0221 42.211L37.2554 43.7744C37.1204 43.8054 36.98 43.8046 36.8453 43.7719C36.7106 43.7393 36.5854 43.6757 36.4796 43.5863C36.3737 43.4968 36.2902 43.384 36.2355 43.2567C36.1808 43.1293 36.1565 42.991 36.1646 42.8527H36.1675ZM79.8475 19.7352L62.4117 22.9085L60.825 28.4123L66.8829 27.2456C67.3524 27.152 67.8393 27.2051 68.2775 27.3976C68.7158 27.5902 69.0843 27.9128 69.3329 28.3219C69.544 28.6621 69.664 29.0508 69.6813 29.4508C69.6987 29.8507 69.6129 30.2484 69.4321 30.6056L49.625 70.1294L49.5871 70.2023L49.5433 70.2694L49.1875 70.8235C48.9772 71.153 48.6875 71.4245 48.3451 71.613C48.0027 71.8016 47.6184 71.9012 47.2275 71.9027C46.8735 71.9008 46.5243 71.8208 46.2047 71.6686C45.885 71.5163 45.6029 71.2955 45.3783 71.0219C45.1599 70.7515 45.0046 70.4357 44.9239 70.0976C44.8432 69.7595 44.839 69.4076 44.9117 69.0677L47.9129 54.5398L44.6463 55.5315C44.1994 55.6661 43.7227 55.6653 43.2763 55.5293C42.8299 55.3933 42.4338 55.1282 42.1379 54.7673C41.9173 54.4979 41.7596 54.1827 41.6764 53.8446C41.5931 53.5065 41.5864 53.1541 41.6567 52.8131L43.4942 43.8298L37.5821 45.1948C37.1819 45.2865 36.7646 45.272 36.3717 45.1528C35.9788 45.0336 35.6239 44.8138 35.3421 44.5152C35.1236 44.2816 34.9549 44.006 34.8461 43.7051C34.7373 43.4043 34.6907 43.0846 34.7092 42.7652L35.8438 23.6027L14.1438 19.7235C13.8094 19.6632 13.4648 19.6995 13.1504 19.8283C12.836 19.957 12.5648 20.1728 12.3688 20.4503C12.1728 20.7278 12.06 21.0554 12.0438 21.3948C12.0275 21.7341 12.1085 22.0711 12.2771 22.366L45.775 81.099C45.9315 81.3739 46.1582 81.6022 46.432 81.7607C46.7057 81.9192 47.0167 82.0021 47.333 82.0009C47.6493 81.9997 47.9596 81.9145 48.2322 81.754C48.5048 81.5934 48.7298 81.3634 48.8842 81.0873L81.7258 22.3602C81.8905 22.0647 81.9677 21.7286 81.9487 21.3909C81.9296 21.0531 81.815 20.7278 81.6181 20.4527C81.4213 20.1777 81.1504 19.9642 80.8369 19.8371C80.5234 19.7101 80.1803 19.6748 79.8475 19.7352Z" fill="white"/>
<defs>
<filter id="filter0_f_262_1895" x="0" y="0" width="94" height="94.001" filterUnits="userSpaceOnUse" color-interpolation-filters="sRGB">
<feFlood flood-opacity="0" result="BackgroundImageFix"/>
<feBlend mode="normal" in="SourceGraphic" in2="BackgroundImageFix" result="shape"/>
<feGaussianBlur stdDeviation="6" result="effect1_foregroundBlur_262_1895"/>
</filter>
</defs>
</svg>
